<svg height="512" viewBox="0 0 32 32" width="512" xmlns="http://www.w3.org/2000/svg"><path d="m24.85 24h-12.61l11.68-11.68a4.5973 4.5973 0 0 1 .51 2.34 5.1289 5.1289 0 0 1 3.02.61 4.6439 4.6439 0 0 1 -2.6 8.73zm3.443-21.707-7.2394 7.2393-.0036-.0023a10.4179 10.4179 0 0 0 -1.98-.84 10.622 10.622 0 0 0 -2.6-.5 8.2975 8.2975 0 0 0 -7.14 3.2 4.9039 4.9039 0 0 0 -.81 3.27c-2.45-.32-5.51 1.28-6.21 3.6a4.1526 4.1526 0 0 0 2.18 5.01 5.53 5.53 0 0 0 2.12.7h.0057l-4.3227 4.323c-.929.9032.509 2.3473 1.414 1.414l26-26c.9309-.9034-.5101-2.3452-1.414-1.414z"/></svg>