<svg enable-background="new 0 0 410.384 410.384" viewBox="0 0 410.384 410.384" xmlns="http://www.w3.org/2000/svg"><path d="m205.191 0c-3.513 0-6.361 2.848-6.361 6.361v27.283h12.722v-27.283c0-3.513-2.848-6.361-6.361-6.361z" fill="#132c30"/><path d="m392.108 259.413h-373.834c-8.377 0-15.168-6.791-15.168-15.168v-168.402c0-24.592 19.935-44.527 44.527-44.527h315.117c24.591 0 44.526 19.936 44.526 44.527v168.402c0 8.377-6.79 15.168-15.168 15.168z" fill="#3f6472"/><path d="m362.75 31.316h-90.816l-83.014 228.097h203.189c8.378 0 15.169-6.791 15.169-15.168v-168.402c-.002-24.591-19.938-44.527-44.528-44.527z" fill="#224249"/><path d="m60.941 65.132h25.95v25.95h-25.95z" fill="#ffbc6c"/><g fill="#91bac1"><path d="m112.841 65.132h25.95v25.95h-25.95z"/><path d="m164.742 65.132h25.949v25.95h-25.949z"/><path d="m216.642 65.132h25.949v25.95h-25.949z"/></g><path d="m268.542 65.132h25.95v25.95h-25.95z" fill="#5e9196"/><path d="m320.441 65.132h25.949v25.95h-25.949z" fill="#5e9196"/><g fill="#91bac1"><path d="m34.501 115.162h25.95v25.95h-25.95z"/><path d="m86.402 115.162h25.95v25.95h-25.95z"/><path d="m138.301 115.162h25.949v25.95h-25.949z"/><path d="m190.201 115.162h25.95v25.95h-25.95z"/></g><g fill="#5e9196"><path d="m242.102 115.162h25.95v25.95h-25.95z"/><path d="m294.001 115.162h25.949v25.95h-25.949z"/><path d="m345.901 115.162h25.949v25.95h-25.949z"/></g><path d="m34.501 165.192h25.95v25.95h-25.95z" fill="#91bac1"/><path d="m138.301 165.192h129.75v25.95h-129.75z" fill="#fff"/><path d="m345.901 165.192h25.949v25.95h-25.949z" fill="#5e9196"/><path d="m123.245 234.183-8.332 20.433c-.542 1.328-2.517.939-2.517-.494v-76.107c0-7.094-5.762-12.839-12.856-12.818-7.064.021-12.78 5.754-12.78 12.818v43.067h-54.28c-11.766 0-21.304 9.538-21.304 21.304v56.971c0 9.002 4.999 17.258 12.975 21.43s12.975 12.428 12.975 21.43v13.59h62.927v-18.719c0-6.558 3.82-12.515 9.779-15.251l6.51-2.989c5.965-2.738 10.561-7.784 12.732-13.979l18.218-63.471c1.616-6.424-2.034-13-8.341-15.027-6.487-2.085-13.455 1.38-15.706 7.812z" fill="#ffbc6c"/><path d="m109.833 410.384h-83.848v-49.81c0-2.635 2.136-4.77 4.771-4.77h74.305c2.635 0 4.771 2.135 4.771 4.77z" fill="#3f6472"/><path d="m77.341 221.082h9.408v37.19h-9.408z" fill="#e08327"/><path d="m53.671 221.082h9.408v37.19h-9.408z" fill="#e08327"/><path d="m29.991 221.082h9.408v37.19h-9.408z" fill="#e08327"/><path d="m283.492 234.183 8.331 20.433c.542 1.328 2.517.939 2.517-.494v-76.107c0-7.094 5.762-12.839 12.856-12.818 7.064.021 12.78 5.754 12.78 12.818v43.067h54.281c11.766 0 21.304 9.538 21.304 21.304v56.971c0 9.002-4.999 17.258-12.976 21.43-7.976 4.172-12.975 12.428-12.975 21.43v13.59h-62.927v-18.719c0-6.558-3.819-12.515-9.779-15.251l-6.511-2.989c-5.965-2.738-10.561-7.784-12.731-13.979l-18.218-63.471c-1.615-6.424 2.034-13 8.341-15.027 6.488-2.085 13.456 1.38 15.707 7.812z" fill="#ffbc6c"/><path d="m296.905 410.384h83.846v-49.81c0-2.635-2.136-4.77-4.77-4.77h-74.306c-2.635 0-4.771 2.135-4.771 4.77z" fill="#3f6472"/><path d="m319.991 221.082h9.407v37.19h-9.407z" fill="#e08327"/><path d="m343.661 221.082h9.407v37.19h-9.407z" fill="#e08327"/><path d="m367.341 221.082h9.407v37.19h-9.407z" fill="#e08327"/><path d="m268.048 191.146v-25.95h-49.221l-10.293 25.95z" fill="#bcbcbc"/><circle cx="93.441" cy="376.402" fill="#5e9196" r="6.69"/><circle cx="365.151" cy="376.402" fill="#5e9196" r="6.69"/></svg>