<svg height="16.996" viewBox="0 0 17 16.996" width="17" xmlns="http://www.w3.org/2000/svg"><path d="m56.5 48h-.029a8.5 8.5 0 0 0 0 17h.029a8.5 8.5 0 1 0 0-17zm7.362 7.926h-3.172a16.089 16.089 0 0 0 -.4-3.113 12.446 12.446 0 0 0 2.031-.858 7.32 7.32 0 0 1 1.539 3.971zm-7.934 0h-2.528a14.522 14.522 0 0 1 .36-2.823 12.43 12.43 0 0 0 2.165.29zm0 1.144v2.53a12.482 12.482 0 0 0 -2.165.29 14.52 14.52 0 0 1 -.36-2.819zm1.144 0h2.5a14.436 14.436 0 0 1 -.36 2.815 12.194 12.194 0 0 0 -2.142-.285zm0-1.144v-2.533a12.483 12.483 0 0 0 2.145-.286 14.479 14.479 0 0 1 .36 2.819zm4.47-4.817a11.35 11.35 0 0 1 -1.553.633 8.436 8.436 0 0 0 -1.089-2.226 7.393 7.393 0 0 1 2.64 1.593zm-2.631.927a11.5 11.5 0 0 1 -1.839.245v-3a4.95 4.95 0 0 1 1.836 2.756zm-2.982-2.77v3.011a11.3 11.3 0 0 1 -1.859-.249 4.948 4.948 0 0 1 1.856-2.761zm-1.863.261a8.5 8.5 0 0 0 -1.075 2.21 11.606 11.606 0 0 1 -1.532-.629 7.283 7.283 0 0 1 2.604-1.58zm-3.387 2.431a12.2 12.2 0 0 0 2.01.85 15.441 15.441 0 0 0 -.4 3.113h-3.149a7.282 7.282 0 0 1 1.536-3.962zm-1.54 5.111h3.146a16.048 16.048 0 0 0 .4 3.113 12.943 12.943 0 0 0 -2.01.85 7.321 7.321 0 0 1 -1.539-3.962zm2.317 4.817a11.434 11.434 0 0 1 1.536-.629 8.532 8.532 0 0 0 1.075 2.214 7.464 7.464 0 0 1 -2.615-1.584zm2.615-.923a11.361 11.361 0 0 1 1.859-.249v3.015a4.94 4.94 0 0 1 -1.863-2.766zm3 2.75v-3a11.5 11.5 0 0 1 1.839.245 4.948 4.948 0 0 1 -1.84 2.755zm1.839-.233a8.436 8.436 0 0 0 1.083-2.227 11.163 11.163 0 0 1 1.553.637 7.478 7.478 0 0 1 -2.638 1.59zm3.411-2.443a12.446 12.446 0 0 0 -2.031-.858 16.005 16.005 0 0 0 .4-3.109h3.17a7.287 7.287 0 0 1 -1.54 3.967z" transform="translate(-48 -48)"/></svg>