<svg height="45" viewBox="0 0 45 45" width="45" xmlns="http://www.w3.org/2000/svg"><g fill="none" fill-rule="evenodd" transform="translate(2 2)"><path d="m17.1979406 40.8908016c5.2587748-1.0870619 10.8499609-2.6324223 15.9293171-4.401343 1.5118456-.5267639 2.6968432-1.7186196 3.2170182-3.2388295 1.7496797-5.1083523 3.2740429-10.7280988 4.3436006-16.0125048.3129395-1.5439632-.0723238-3.1452137-1.0959837-4.3203024-3.5369121-4.05761903-7.6468511-8.17531988-11.6928114-11.71875027-1.1710893-1.02558277-2.7663854-1.40842974-4.3032662-1.08985635-5.2587748 1.0856646-10.8499609 2.63102501-15.92931705 4.3999457-1.51045476.52676391-2.69684325 1.72001688-3.21701828 3.24022677-1.74967964 5.10835235-3.27404282 10.72809875-4.34360056 16.01250485-.31293953 1.5425659.0723238 3.1452136 1.09598374 4.3203023 3.53691202 4.0562218 7.64685107 8.1753199 11.69281135 11.7173531 1.1724801 1.02698 2.7677762 1.4098269 4.3032662 1.0912536" opacity=".245075" stroke="#fff" stroke-width="3"/><text fill="#fff" font-family="-apple-system, 'Helvetica Neue', Roboto, serif" font-size="16" font-weight="500" letter-spacing="-.150000006"><tspan x="16.435" y="26">3</tspan></text></g></svg>