<svg height="157" viewBox="0 0 156 157" width="156" xmlns="http://www.w3.org/2000/svg" xmlns:xlink="http://www.w3.org/1999/xlink"><defs><path id="a" d="m66.0416466 155.668465c19.9168881-4.117098 41.0927384-9.969939 60.3301034-16.669483 5.725907-1.995046 10.213924-6.509036 12.184015-12.266622 6.626672-19.347184 12.399988-40.6312028 16.450791-60.6451657 1.185216-5.8475487-.273916-11.9120652-4.150888-16.3625525-13.395569-15.3676754-28.961399-30.9629024-44.284919-44.38315892-4.43534-3.88425404-10.4773048-5.33423444-16.2980298-4.12768141-19.9168882 4.11180571-41.0927386 9.96464623-60.3301031 16.66419073-5.7206402 1.995046-10.2139239 6.5143279-12.1840154 12.2719143-6.6266716 19.3471836-12.39998805 40.6312024-16.45079127 60.6451653-1.1852155 5.8422568.27391647 11.9120652 4.15088809 16.3625522 13.39556908 15.362384 28.96139938 30.962903 44.28491898 44.377867 4.4406074 3.889546 10.4825727 5.339527 16.2980301 4.132974"/><path id="b" d="m.9089179 4.60687967c-.10749907-.32398338-.21499814-.71839792-.21499814-1.0470767 0-1.54479028 1.28998884-2.69986143 2.83236679-2.69986143 1.28998884 0 2.33226243.82639237 2.69215062 1.98146352l4.98702203 15.46198904 5.0197392-15.31643129c.4299963-1.3006289 1.4021618-2.19745243 2.7996497-2.19745243h.4299963c1.3974879 0 2.3696534.86395565 2.7949758 2.19745243l5.024413 15.31643129 4.9870221-15.46198904c.3598882-1.07994457 1.2899888-1.98146352 2.6547596-1.98146352 1.504987 0 2.7248677 1.15507115 2.7248677 2.66699355 0 .32398338-.107499.7559612-.2149981 1.07994458l-7.0295044 19.82402603c-.5001043 1.4039279-1.5423779 2.2678836-2.8697578 2.2678836h-.5748863c-1.3273798 0-2.3322624-.8310878-2.8323668-2.2678836l-4.9496311-14.45247564-4.9543049 14.45247564c-.5001044 1.4367958-1.504987 2.2678836-2.8323668 2.2678836h-.5748863c-1.32737986 0-2.36497957-.8639557-2.86975781-2.2678836zm40.2158694-.75877845c0-1.54948569 1.2198807-2.7702926 2.7622587-2.7702926h8.7167724c3.192255 0 5.6694074.90151895 7.3192845 2.5589991 1.3974879 1.40392794 2.1499814 3.38539146 2.1499814 5.76596493v.07043116c0 3.96292709-1.9723743 6.41393169-5.0197392 7.67230189l3.8372494 4.6907158c.5374954.68553.8973835 1.2583702.8973835 2.1223258 0 1.5494857-1.2946627 2.5589991-2.6220425 2.5589991-1.2525978 0-2.0798733-.6104034-2.7248677-1.4414912l-5.3796274-6.8459095h-4.4121357v5.5124127c0 1.5494857-1.2198808 2.774988-2.7622587 2.774988-1.542378 0-2.7622587-1.2255023-2.7622587-2.774988zm11.1191429 9.48003518c2.6921506 0 4.2345286-1.4414912 4.2345286-3.5685125v-.07043117c0-2.38057347-1.6498771-3.60138038-4.3420277-3.60138038h-5.4871264v7.24032405zm14.7086771-9.69320685c0-1.54948569 1.2198807-2.77498801 2.7622587-2.77498801 1.5423779 0 2.7622587 1.22550232 2.7622587 2.77498801v20.11044605c0 1.5494857-1.2198808 2.7749881-2.7622587 2.7749881-1.542378 0-2.7622587-1.2255024-2.7622587-2.7749881zm10.048826 10.12659325v-.0751265c0-7.16989291 5.6320165-13.04385229 13.3812973-13.04385229s13.3111894 5.80352822 13.3111894 12.97342109v.0704312c0 7.1745883-5.6320167 13.0485476-13.3812975 13.0485476s-13.3111892-5.8035282-13.3111892-12.9734211zm20.9155799 0v-.0751265c0-4.32447373-3.154864-7.92585411-7.6043907-7.92585411s-7.5342826 3.53094921-7.5342826 7.85542291v.0704312c0 4.3291691 3.1595379 7.9305495 7.6043907 7.9305495 4.4495267 0 7.5342826-3.5309493 7.5342826-7.855423z"/><mask id="c" fill="#fff"><use fill="none" xlink:href="#a"/></mask><mask id="d" fill="#fff"><use fill="none" xlink:href="#b"/></mask></defs><g fill="none" fill-rule="evenodd"><use fill="#3C61E2" xlink:href="#a"/><g fill="#fff" mask="url(#c)"><path d="m0 0h163v164h-163z" transform="translate(-3 -4)"/></g><g transform="translate(26 66)"><use fill="#fff" xlink:href="#b"/><g fill="#3C61E2" mask="url(#d)"><path d="m0 0h131v131h-131z" transform="translate(-13.230159 -55.2)"/></g></g></g></svg>