<svg height="13" viewBox="0 0 13 13" width="13" xmlns="http://www.w3.org/2000/svg"><path d="m-149.5 1166a6.459 6.459 0 0 1 -2.53-.511 6.479 6.479 0 0 1 -2.066-1.393 6.477 6.477 0 0 1 -1.393-2.066 6.459 6.459 0 0 1 -.511-2.53 6.46 6.46 0 0 1 .511-2.53 6.477 6.477 0 0 1 1.393-2.066 6.475 6.475 0 0 1 2.066-1.393 6.459 6.459 0 0 1 2.53-.511 6.459 6.459 0 0 1 2.53.511 6.475 6.475 0 0 1 2.066 1.393 6.477 6.477 0 0 1 1.393 2.066 6.46 6.46 0 0 1 .511 2.53 6.458 6.458 0 0 1 -.511 2.53 6.477 6.477 0 0 1 -1.393 2.066 6.48 6.48 0 0 1 -2.066 1.393 6.459 6.459 0 0 1 -2.53.511zm-2.823-6.571-.552.551 1.563 1.563.552.552.552-.552 3.953-3.953-.552-.551-3.953 3.953z" fill="#fff" transform="translate(156 -1153)"/></svg>