<svg height="20.015" viewBox="0 0 13.717 20.015" width="13.717" xmlns="http://www.w3.org/2000/svg"><g stroke="#000" stroke-width=".7"><path d="m11.885 40.89h-.024a1.335 1.335 0 0 0 -.9.342 1.4 1.4 0 0 0 -1.3-.951 1.352 1.352 0 0 0 -.966.416 1.384 1.384 0 0 0 -1.235-.79h-.029a1.268 1.268 0 0 0 -.795.265v-3.354a1.44 1.44 0 0 0 -1.4-1.47 1.437 1.437 0 0 0 -1.395 1.469l-.006 6.655-.377-.457a1.9 1.9 0 0 0 -1.342-.7 1.869 1.869 0 0 0 -1.4.5l-.328.272a.291.291 0 0 0 -.073.359l3.185 6.112a3.285 3.285 0 0 0 2.9 1.818h3.59a3.419 3.419 0 0 0 3.3-3.519c0-.868 0-1.515 0-2.039 0-1.4 0-1.92 0-3.465a1.43 1.43 0 0 0 -1.405-1.463zm.81 4.923v2.042a2.844 2.844 0 0 1 -2.724 2.939h-3.571a2.7 2.7 0 0 1 -2.376-1.5l-3.081-5.919.152-.127.011-.01a1.293 1.293 0 0 1 .971-.349 1.322 1.322 0 0 1 .932.494l.891 1.086a.291.291 0 0 0 .516-.185l.005-7.467a.857.857 0 0 1 .816-.887.857.857 0 0 1 .816.887v4.5.047s0 .014 0 .02v1.925a.291.291 0 1 0 .583 0v-1.979a.817.817 0 0 1 .795-.84h.026a.85.85 0 0 1 .818.878v1.761a.291.291 0 1 0 .583 0v-1.382a.805.805 0 1 1 1.6 0v1.3a.291.291 0 0 0 .583 0v-.706a.846.846 0 0 1 .819-.872h.024a.845.845 0 0 1 .809.877c.007 1.548.007 2.065.007 3.466zm0 0" fill="#fff" transform="translate(.083 -31.711)"/><path d="m64.946 2.883a.317.317 0 0 0 .337-.291 2.363 2.363 0 0 1 4.672 0 .341.341 0 0 0 .674 0 3.044 3.044 0 0 0 -6.021 0 .317.317 0 0 0 .338.291zm0 0" fill="none" transform="translate(-62.172 .35)"/></g></svg>