<svg height="274" viewBox="0 0 487 274" width="487" xmlns="http://www.w3.org/2000/svg"><g fill="#fff"><path d="m136 75-43 25-43-25v-50l43-25 43 25z"/><path d="m235 75-43 25-43-25v-50l43-25 43 25z"/><path d="m335 75-43 25-43-25v-50l43-25 43 25z"/><path d="m434 75-43 25-43-25v-50l43-25 43 25z"/><path d="m487 161.5-43 25-43-25v-50l43-25 43 25z"/><path d="m86 162-43 25-43-25v-50l43-25 43 25z"/><path d="m284 162-43 25-43-25v-50l43-25 43 25z"/><path d="m136 249-43 25-43-25v-50l43-25 43 25z"/><path d="m235 249-43 25-43-25v-50l43-25 43 25z"/><path d="m335 249-43 25-43-25v-50l43-25 43 25z"/><path d="m434 249-43 24-43-25v-50l43-25 43 26z"/></g></svg>