<svg xmlns="http://www.w3.org/2000/svg" xmlns:xlink="http://www.w3.org/1999/xlink" width="100" height="100" viewBox="0 0 100 100"><defs><clipPath id="b"><rect width="100" height="100"/></clipPath></defs><g id="a" clip-path="url(#b)"><path d="M-106,1253a49.688,49.688,0,0,1-19.462-3.929,49.834,49.834,0,0,1-15.893-10.715,49.832,49.832,0,0,1-10.715-15.893A49.686,49.686,0,0,1-156,1203a49.688,49.688,0,0,1,3.929-19.463,49.836,49.836,0,0,1,10.715-15.893,49.836,49.836,0,0,1,15.893-10.715A49.688,49.688,0,0,1-106,1153a49.69,49.69,0,0,1,19.463,3.929,49.837,49.837,0,0,1,15.893,10.715,49.836,49.836,0,0,1,10.715,15.893A49.688,49.688,0,0,1-56,1203a49.685,49.685,0,0,1-3.929,19.462,49.832,49.832,0,0,1-10.715,15.893,49.834,49.834,0,0,1-15.893,10.715A49.69,49.69,0,0,1-106,1253Zm-21.712-50.549-4.244,4.243,12.02,12.02,4.243,4.243,4.243-4.243,30.406-30.406-4.243-4.243-30.406,30.406-12.02-12.02Z" transform="translate(156 -1153)" fill="#fff"/></g></svg>