<svg height="512" viewBox="0 0 512 512" width="512" xmlns="http://www.w3.org/2000/svg" xmlns:xlink="http://www.w3.org/1999/xlink"><clipPath id="a"><path d="m0 0h512v512h-512z"/></clipPath><g clip-path="url(#a)"><circle cx="256" cy="256" fill="#fff" r="256"/><path d="m156.485 38v45.518h-119.485a170.409 170.409 0 0 1 7.055-22.759h12.518c6.867 0 12.517-10.241 12.517-22.759z" fill="#c03a2b" transform="translate(264.515 269.212)"/><path d="m123.657 41.69v17.069h-79.657v-22.759h73.967a5.69 5.69 0 0 1 5.69 5.69z" fill="#393f4a" transform="translate(297.343 259.832)"/><path d="m47 4h39.828v68.277h-39.828z" fill="#f5efca" transform="translate(311.413 109.759)"/><path d="m42 4h34.139v68.277h-34.139z" fill="#285680" transform="translate(287.964 109.759)"/><path d="m81.449 9.69v56.9a5.69 5.69 0 0 1 -5.69 5.69h-22.759v-68.28h22.759a5.69 5.69 0 0 1 5.69 5.69z" fill="#c03a2b" transform="translate(339.551 109.759)"/><path d="m42 20h85.347a5.69 5.69 0 0 1 5.69 5.69v56.9a5.69 5.69 0 0 1 -5.69 5.69h-85.347z" fill="#f5efca" transform="translate(287.964 184.796)"/><ellipse cx="11.5" cy="11" fill="#c03a2b" rx="11.5" ry="11" transform="translate(370 228)"/><path d="m28.449.09 22.759 238.971a33.183 33.183 0 0 0 -18.435 9.5c-6.202 6.147-32.773 14.681-32.773 24.126v-238.97a34.082 34.082 0 0 1 28.449-33.627z" fill="#c03a2b" transform="translate(90.993 91.422)"/><path d="m84.1 52.69v17.069a17.121 17.121 0 0 1 -17.072 17.069h-5.69c-.91-1.252-16.273-8.25-17.069-9.559a67.455 67.455 0 0 1 -4.723-9.5 55.128 55.128 0 0 1 -4.096-20.769z" fill="#b19046" transform="translate(257.246 311.42)"/><path d="m226.9 11.38v216.211c0 6.259-5.121 17.069-11.38 17.069l-204.83-.512a29.193 29.193 0 0 0 -5.633.512h-.057v-244.148a31.123 31.123 0 0 1 5.69-.512h204.832a11.414 11.414 0 0 1 11.378 11.38z" fill="#f0c419" transform="translate(114.442 91)"/><path d="m225.03 106.385c-201.816 0-190.647.176-194.021-.319a31.726 31.726 0 0 1 -2.409-63.213c22.162 0-76.357-.478 196.445-.478a51.259 51.259 0 0 0 -.011 64.01z" fill="#f5efca" transform="translate(93.554 289.729)"/><path d="m106.416 58.38h-96.726a5.69 5.69 0 1 1 0-11.38h96.726a5.69 5.69 0 1 1 0 11.38z" fill="#cbb292" transform="translate(109.752 311.42)"/><path d="m153.34 110.543a77.182 77.182 0 0 1 -26.628 33v-.057a71.777 71.777 0 0 0 -17.354-3.528 75.987 75.987 0 0 0 -23.612 1.542 55.31 55.31 0 0 0 -23.669 13.2 76.454 76.454 0 0 1 -20.426-8.99v-.057a71.72 71.72 0 0 0 2.674-11.493 67.527 67.527 0 0 0 -1.536-16.9c-1.309-11.721 6.771-20.825 7.738-32.147a9.246 9.246 0 0 0 -5.974-9.73c-5.633-2.447-12.062-2.56-17.638-4.836a26.662 26.662 0 0 1 -14.795-20.547 76.374 76.374 0 0 1 13.2-20.54 140.868 140.868 0 0 0 34.822-3.98 37.661 37.661 0 0 0 27.481-21.45 76.527 76.527 0 0 1 29.018 7.795v.057l-.057.057a59.088 59.088 0 0 1 -23.726 16.9 24.369 24.369 0 0 0 -14.4 15.874c-1.873 10.411 8.142 16.727 16.903 18.661 10.412 2.333 19.744 8.136 19.8 19.857a41.649 41.649 0 0 1 -3.186 14.338 55.123 55.123 0 0 0 -5.064 17.069 10.924 10.924 0 0 0 13.6 10.867 31.823 31.823 0 0 0 13.257-5.519c.455-.284.91-.569 1.366-.91a53.876 53.876 0 0 1 18.207-8.535z" fill="#2fa8cc" transform="translate(147.833 109.9)"/><path d="m48.049 79.363a67.526 67.526 0 0 1 1.536 16.9 71.72 71.72 0 0 1 -2.674 11.493v.057a76.886 76.886 0 0 1 -29.53-95.7 26.662 26.662 0 0 0 14.793 20.537c5.576 2.276 12.005 2.39 17.638 4.836a9.246 9.246 0 0 1 5.974 9.73c-.967 11.323-9.047 20.426-7.738 32.147z" fill="#4fba6f" transform="translate(142.572 147.793)"/><path d="m76.743 4.171a37.661 37.661 0 0 1 -27.482 21.45 140.867 140.867 0 0 1 -34.821 3.979 76.6 76.6 0 0 1 57.239-25.6c1.707 0 3.357.057 5.064.171z" fill="#b0d3f0" transform="translate(158.713 109.759)"/><path d="m85.536 31.709v.057a76.812 76.812 0 0 1 -64.636 11.152 55.31 55.31 0 0 1 23.669-13.2 75.987 75.987 0 0 1 23.613-1.536 71.776 71.776 0 0 1 17.354 3.528z" fill="#b0d3f0" transform="translate(189.009 221.677)"/><path d="m104.878 74.246a76.943 76.943 0 0 1 -6.031 29.871 53.876 53.876 0 0 0 -18.207 8.535c-.455.341-.91.626-1.366.91a31.823 31.823 0 0 1 -13.257 5.519 10.924 10.924 0 0 1 -13.6-10.867 55.123 55.123 0 0 1 5.064-17.069 41.649 41.649 0 0 0 3.186-14.338c-.057-11.721-9.388-17.525-19.8-19.857-8.762-1.935-18.776-8.25-16.9-18.662a24.369 24.369 0 0 1 14.4-15.874 59.088 59.088 0 0 0 23.723-16.9l.057-.057v-.057a76.812 76.812 0 0 1 42.73 68.846z" fill="#4fba6f" transform="translate(202.327 116.325)"/><path d="m117.416 45.38h-96.726a5.69 5.69 0 1 1 0-11.38h96.726a5.69 5.69 0 1 1 0 11.38z" fill="#f29c1f" transform="translate(161.34 250.452)"/><path d="m30.353 63.1c2.56-.512-10.913-.341 202.841-.341a17.121 17.121 0 0 0 17.069-17.069v-5.69a11.414 11.414 0 0 1 -11.38 11.38h-204.832a33.8 33.8 0 0 0 -24.58 57.239 36.329 36.329 0 0 0 25.429 11.038h198.293a17.121 17.121 0 0 0 17.069-17.069v-17.07a5.69 5.69 0 1 0 -11.38 0v17.069a5.69 5.69 0 0 1 -5.69 5.69h-197.775a23.8 23.8 0 0 1 -24.125-23.612 22.725 22.725 0 0 1 19.061-21.565zm193.891 51.436c-.216-.37-.421-.745-.626-1.138.21.381.404.757.625 1.138z" fill="#e64c3c" transform="translate(91.08 278.591)"/><path d="m46.285 104.289-11.985-5.989a5.69 5.69 0 0 0 -5.087 0l-11.983 5.991a5.69 5.69 0 0 1 -8.23-5.083v-51.208h45.518v51.208a5.69 5.69 0 0 1 -8.233 5.081z" fill="#c03a2b" transform="translate(133.201 316.109)"/><path d="m151.8 44v17.069a5.69 5.69 0 0 1 -5.69 5.69h-108.11a54.741 54.741 0 0 1 4.95-22.759z" fill="#f0c419" transform="translate(269.205 297.35)"/></g></svg>