<svg height="512" viewBox="0 0 512 512" width="512" xmlns="http://www.w3.org/2000/svg" xmlns:xlink="http://www.w3.org/1999/xlink"><clipPath id="a"><path d="m0 0h512v512h-512z"/></clipPath><g clip-path="url(#a)"><circle cx="256" cy="256" fill="#fff" r="256"/><path d="m133.049 285.258h-121.962a11.085 11.085 0 0 1 -11.087-11.088v-121.962a11.085 11.085 0 0 1 11.087-11.087h121.962a11.085 11.085 0 0 1 11.087 11.087v121.962a11.084 11.084 0 0 1 -11.087 11.087" fill="#42b05c" transform="translate(83.464 42.777)"/><g fill="#fff"><path d="m87.463 187.518h-55.437a5.544 5.544 0 0 1 0-11.088h55.437a5.544 5.544 0 1 1 0 11.088" transform="translate(73.613 29.644)"/><path d="m119.49 222.829h-60.981a5.544 5.544 0 1 1 0-11.088h60.981a5.544 5.544 0 0 1 0 11.088" transform="translate(63.761 16.508)"/><path d="m87.463 258.139h-55.437a5.544 5.544 0 0 1 0-11.088h55.437a5.544 5.544 0 1 1 0 11.088" transform="translate(73.613 3.373)"/><path d="m54.2 293.449h-22.174a5.544 5.544 0 0 1 0-11.088h22.174a5.544 5.544 0 0 1 0 11.088" transform="translate(73.613 -9.762)"/><path d="m94.031 328.76h-44.349a5.544 5.544 0 1 1 0-11.088h44.35a5.544 5.544 0 1 1 0 11.088" transform="translate(67.045 -22.898)"/></g><path d="m415.532 285.258h-121.962a11.085 11.085 0 0 1 -11.087-11.087v-121.963a11.085 11.085 0 0 1 11.087-11.087h121.962a11.085 11.085 0 0 1 11.087 11.087v121.962a11.085 11.085 0 0 1 -11.087 11.087" fill="#ed7161" transform="translate(2.092 42.777)"/><g fill="#fff"><path d="m369.946 187.518h-55.437a5.544 5.544 0 0 1 0-11.088h55.437a5.544 5.544 0 0 1 0 11.088" transform="translate(-7.759 29.644)"/><path d="m401.973 222.829h-60.981a5.544 5.544 0 1 1 0-11.088h60.981a5.544 5.544 0 0 1 0 11.088" transform="translate(-17.611 16.508)"/><path d="m369.946 258.139h-55.437a5.544 5.544 0 0 1 0-11.088h55.437a5.544 5.544 0 0 1 0 11.088" transform="translate(-7.759 3.373)"/><path d="m336.684 293.449h-22.175a5.544 5.544 0 0 1 0-11.088h22.175a5.544 5.544 0 1 1 0 11.088" transform="translate(-7.759 -9.762)"/><path d="m376.514 328.76h-44.35a5.544 5.544 0 1 1 0-11.088h44.35a5.544 5.544 0 1 1 0 11.088" transform="translate(-14.327 -22.898)"/></g><g fill="#48a0dc"><path d="m334.771 72.025a5.547 5.547 0 0 1 -1.763-10.8l31.91-10.689-10.689-31.919a5.543 5.543 0 1 1 10.511-3.527l12.46 37.171a5.545 5.545 0 0 1 -3.5 7.019l-37.166 12.457a5.614 5.614 0 0 1 -1.763.288" transform="translate(-27.152 79.746)"/><path d="m288.869 68.452a5.5 5.5 0 0 1 -2.439-.571c-31.217-15.345-56.209-21.6-86.255-21.6s-55.038 6.259-86.255 21.6a5.541 5.541 0 1 1 -4.89-9.945c32.858-16.16 59.262-22.746 91.144-22.746s58.287 6.586 91.144 22.746a5.543 5.543 0 0 1 -2.45 10.516" transform="translate(55.914 70.861)"/><path d="m123.928 464.728a5.55 5.55 0 0 1 -5.256-3.786l-12.457-37.165a5.545 5.545 0 0 1 3.5-7.019l37.164-12.458a5.546 5.546 0 0 1 3.526 10.517l-31.91 10.689 10.689 31.915a5.544 5.544 0 0 1 -3.492 7.019 5.614 5.614 0 0 1 -1.763.288" transform="translate(55.915 -43.676)"/><path d="m200.174 457.109c-31.877 0-58.287-6.586-91.144-22.746a5.541 5.541 0 1 1 4.89-9.945c31.217 15.345 56.208 21.6 86.255 21.6s55.038-6.259 86.255-21.6a5.541 5.541 0 1 1 4.89 9.945c-32.858 16.16-59.268 22.746-91.144 22.746" transform="translate(55.914 -51.054)"/></g></g></svg>