<svg height="512" viewBox="0 0 512 512" width="512" xmlns="http://www.w3.org/2000/svg" xmlns:xlink="http://www.w3.org/1999/xlink"><clipPath id="a"><path d="m0 0h512v512h-512z"/></clipPath><g clip-path="url(#a)"><circle cx="256" cy="256" fill="#fff" r="256"/><path d="m189.946 342.6v-16.323l-22.259-5.194a55.578 55.578 0 0 0 -2.968-11.872l17.065-15.582-8.161-14.1-21.517 6.678-8.9-8.9 6.678-21.517-14.1-8.162-15.584 17.065c-3.71-1.484-8.162-2.226-11.872-2.968l-5.194-22.259h-16.323l-5.194 22.259a55.577 55.577 0 0 0 -11.872 2.968l-15.581-17.065-14.1 8.162 6.678 21.517-8.9 8.9-21.517-6.678-8.162 14.1 17.065 15.582c-1.484 3.71-2.226 8.161-2.968 11.872l-22.26 5.195v16.322l22.259 5.2a55.578 55.578 0 0 0 2.968 11.872l-17.065 15.577 8.162 14.1 21.517-6.678 8.9 8.9-6.674 21.519 14.1 8.161 15.582-17.065c3.71 1.484 8.162 2.226 11.872 2.968l5.194 22.259h16.324l5.194-22.259a55.579 55.579 0 0 0 11.872-2.968l15.582 17.065 14.1-8.161-6.687-21.518 8.9-8.9 21.517 6.678 8.162-14.1-17.059-15.583c1.484-3.71 2.226-8.162 2.968-11.872zm-94.973 36.358a44.519 44.519 0 1 1 44.519-44.519 44.649 44.649 0 0 1 -44.519 44.519z" fill="#f3705a" transform="translate(66 15.797)"/><path d="m129.715 353.6a15.582 15.582 0 1 0 15.585 15.582 15.215 15.215 0 0 0 -15.585-15.582z" fill="#f3705a" transform="translate(31.258 -18.945)"/><path d="m408.1 152.638 5.194-18.55-23.743-12.613a49.659 49.659 0 0 0 0-14.839l24.485-12.613-5.936-19.291-27.453 1.484a120.016 120.016 0 0 0 -7.42-13.356l14.839-23-14.1-14.1-23 14.839c-3.71-2.968-8.162-5.194-12.613-7.42l1.484-27.453-19.29-5.193-12.613 24.485a49.658 49.658 0 0 0 -14.839 0l-11.872-24.485-19.292 5.194 1.484 27.453a120.015 120.015 0 0 0 -13.356 7.42l-23-14.84-14.1 13.356 14.839 23c-2.968 3.71-5.194 8.162-7.42 12.613l-27.453-1.484-5.194 19.291 24.485 12.613a49.658 49.658 0 0 0 0 14.839l-24.484 12.612 5.194 19.291 27.454-1.483a120.01 120.01 0 0 0 7.42 13.356l-14.84 23 14.1 14.1 23-14.839c3.71 2.968 8.162 5.194 12.613 7.42l-1.484 27.455 19.291 5.2 12.613-23.743a49.658 49.658 0 0 0 14.839 0l12.613 24.485 19.292-5.2-1.484-27.453a120.016 120.016 0 0 0 13.356-7.42l23 14.839 14.1-14.1-14.839-23c2.968-3.71 5.194-8.162 7.42-12.613zm-118.716 2.226c-23-5.936-36.357-29.679-30.421-52.68s29.679-36.357 52.68-30.422 36.357 29.679 30.421 52.68c-6.678 23.002-30.421 36.358-52.68 30.422z" fill="#66c6b9" transform="translate(31.964 65.467)"/><path d="m346.609 135.666a19.263 19.263 0 1 0 13.356 23.743c2.225-10.388-3.71-20.775-13.356-23.743z" fill="#66c6b9" transform="translate(-8.938 24.566)"/><path d="m126.878 134.048v-18.548l-17.065-3.71a26.016 26.016 0 0 0 -4.452-10.387l9.645-14.84-13.355-13.358-14.84 9.646a26.02 26.02 0 0 0 -10.387-4.451l-3.71-17.065h-18.549l-3.71 17.065a26.016 26.016 0 0 0 -10.387 4.452l-14.84-9.646-13.356 13.355 9.646 14.1a29.279 29.279 0 0 0 -4.452 11.13l-17.066 3.709v18.55l17.065 3.71a26.016 26.016 0 0 0 4.452 10.387l-9.645 14.1 13.355 13.353 14.839-9.646a26.02 26.02 0 0 0 10.388 4.446l3.71 17.065h18.55l3.71-17.065a34.986 34.986 0 0 0 11.13-4.452l14.1 9.646 13.356-13.356-9.65-14.838a26.02 26.02 0 0 0 4.452-10.387zm-63.068 8.161a17.065 17.065 0 1 1 17.065-17.065 17.259 17.259 0 0 1 -17.065 17.065z" fill="#ffd15c" transform="translate(66 46.959)"/></g></svg>