<svg height="512" viewBox="0 0 512 512" width="512" xmlns="http://www.w3.org/2000/svg" xmlns:xlink="http://www.w3.org/1999/xlink"><clipPath id="a"><path d="m0 0h512v512h-512z"/></clipPath><g clip-path="url(#a)"><circle cx="256" cy="256" fill="#fff" r="256"/><path d="m195.791 440c0 12.669 14.348 22.94 32.047 22.94s32.047-10.271 32.047-22.94z" fill="#2f4859" transform="translate(29.119 -15.389)"/><path d="m202.819 62.578c-52.566 3.312-100.288 50.38-103.642 102.216a108.551 108.551 0 0 0 35.345 87.534c12.915 11.814 20.672 28.1 20.672 45.473l109.854.011a59.2 59.2 0 0 1 19.463-44.393 108.626 108.626 0 0 0 36.789-81.439c0-62.932-53.771-113.48-118.481-109.402z" fill="#fcd462" transform="translate(45.877 52.208)"/><ellipse cx="84.347" cy="82.801" fill="#f6c358" rx="84.347" ry="82.801" transform="translate(171.652 143.601)"/><g fill="#d5d6db"><path d="m232.611 35.112a6.583 6.583 0 0 1 -6.583-6.583v-21.946a6.583 6.583 0 0 1 6.583-6.583 6.584 6.584 0 0 1 6.583 6.583v21.945a6.583 6.583 0 0 1 -6.583 6.584z" transform="translate(23.389 64)"/><path d="m137.439 66.035a6.583 6.583 0 0 1 -9.2-1.456l-12.9-17.753a6.583 6.583 0 0 1 1.456-9.2 6.583 6.583 0 0 1 9.2 1.456l12.9 17.753a6.582 6.582 0 0 1 -1.456 9.2z" transform="translate(43.631 57.121)"/><path d="m137.439 66.035a6.583 6.583 0 0 1 -9.2-1.456l-12.9-17.753a6.583 6.583 0 0 1 1.456-9.2 6.583 6.583 0 0 1 9.2 1.456l12.9 17.753a6.582 6.582 0 0 1 -1.456 9.2z" transform="translate(43.631 57.121)"/><path d="m78.618 146.993a6.584 6.584 0 0 1 -8.3 4.227l-20.87-6.781a6.584 6.584 0 0 1 -4.227-8.3 6.584 6.584 0 0 1 8.3-4.227l20.87 6.781a6.582 6.582 0 0 1 4.227 8.3z" transform="translate(56.098 40.247)"/><path d="m78.618 146.993a6.584 6.584 0 0 1 -8.3 4.227l-20.87-6.781a6.584 6.584 0 0 1 -4.227-8.3 6.584 6.584 0 0 1 8.3-4.227l20.87 6.781a6.582 6.582 0 0 1 4.227 8.3z" transform="translate(56.098 40.247)"/><path d="m381.734 146.993a6.583 6.583 0 0 1 4.227-8.3l20.87-6.781a6.583 6.583 0 0 1 8.3 4.227 6.583 6.583 0 0 1 -4.227 8.3l-20.87 6.781a6.584 6.584 0 0 1 -8.3-4.227z" transform="translate(-4.451 40.248)"/><path d="m381.734 146.993a6.583 6.583 0 0 1 4.227-8.3l20.87-6.781a6.583 6.583 0 0 1 8.3 4.227 6.583 6.583 0 0 1 -4.227 8.3l-20.87 6.781a6.584 6.584 0 0 1 -8.3-4.227z" transform="translate(-4.451 40.248)"/><path d="m324.775 66.035a6.582 6.582 0 0 1 -1.456-9.2l12.9-17.753a6.582 6.582 0 0 1 9.2-1.456 6.582 6.582 0 0 1 1.456 9.2l-12.9 17.753a6.582 6.582 0 0 1 -9.2 1.456z" transform="translate(6.155 57.121)"/></g><path d="m236.716 332.765h-19.827a3.8 3.8 0 0 1 -3.728-3.076l-17.778-91.708a3.715 3.715 0 0 1 -.069-.722v-29.74a3.8 3.8 0 0 1 6.482-2.685 35.314 35.314 0 0 0 50.012 0 3.8 3.8 0 0 1 6.482 2.685v29.74a3.711 3.711 0 0 1 -.069.722l-17.778 91.709a3.8 3.8 0 0 1 -3.727 3.075zm-16.7-7.595h13.563l17.121-88.276v-21.345a42.956 42.956 0 0 1 -47.786 0v21.345z" fill="#dc8744" transform="translate(29.198 27.993)"/><path d="m285.716 364.912a12.183 12.183 0 0 0 -12.183-12.183h-109a12.143 12.143 0 0 0 -10.292 5.719l124.42 17.482a12.16 12.16 0 0 0 7.055-11.018z" fill="#3a556a" transform="translate(36.981 .36)"/><path d="m153.8 359.782a12.14 12.14 0 0 0 10.3 18.649h108.991a12.076 12.076 0 0 0 5.129-1.167z" fill="#64798a" transform="translate(37.345 -.952)"/><path d="m285.716 393.524a12.183 12.183 0 0 0 -12.183-12.183h-109a12.143 12.143 0 0 0 -10.292 5.719l124.415 17.482a12.161 12.161 0 0 0 7.06-11.018z" fill="#3a556a" transform="translate(36.981 -4.295)"/><path d="m153.8 388.393a12.14 12.14 0 0 0 10.3 18.648h108.991a12.076 12.076 0 0 0 5.129-1.167z" fill="#64798a" transform="translate(37.345 -5.628)"/><path d="m285.716 422.135a12.183 12.183 0 0 0 -12.183-12.183h-109a12.143 12.143 0 0 0 -10.292 5.719l124.415 17.482a12.16 12.16 0 0 0 7.06-11.018z" fill="#3a556a" transform="translate(36.981 -9.706)"/><path d="m153.8 417.005a12.14 12.14 0 0 0 10.3 18.649h108.991a12.076 12.076 0 0 0 5.129-1.167z" fill="#64798a" transform="translate(37.345 -11.039)"/></g></svg>