<svg height="512" viewBox="0 0 512 512" width="512" xmlns="http://www.w3.org/2000/svg" xmlns:xlink="http://www.w3.org/1999/xlink"><clipPath id="a"><path d="m0 0h512v512h-512z"/></clipPath><g clip-path="url(#a)"><circle cx="256" cy="256" fill="#fff" r="256"/><g transform="translate(101.13 84.7)"><path d="m15.346 6.5h279.232v330h-279.232z" fill="#e1ebf0"/><path d="m24.192 24.192h113.791v50.572h-113.791z" fill="#e97b83" transform="translate(16.44 33.112)"/><path d="m77.5 86.367h75.284v50.572h-75.284z" fill="#23ceb0" transform="translate(116.59 149.477)"/><path d="m77.5 24.038h75.2v139.517h-75.2z" fill="#a0cafe" transform="translate(116.59 32.932)"/><path d="m51.761 163.446-18.732-13.93 73.749-93.566a8.33 8.33 0 0 1 13.363 9.936z" fill="#c7cfd4" transform="translate(33.151 86.775)"/><path d="m67.9 100.548c5.3 15-5.934 23.571-26.953 28.2a27.207 27.207 0 0 0 -12.966 7.009c-8.624-22.319-2.01-46.55 21.187-49.135z" fill="#e97b83" transform="translate(16.728 149.944)"/></g></g></svg>