<svg height="512" viewBox="0 0 512 512" width="512" xmlns="http://www.w3.org/2000/svg" xmlns:xlink="http://www.w3.org/1999/xlink"><clipPath id="a"><path d="m0 0h512v512h-512z"/></clipPath><g clip-path="url(#a)"><circle cx="256" cy="256" fill="#fff" r="256"/><g transform="translate(81 112)"><path d="m5 0v159.684h270.234v-159.684z" fill="#28384c" transform="translate(25.708)"/><path d="m16.06 0a16.062 16.062 0 0 0 -16.06 16.06v127.569a16.061 16.061 0 0 0 16.06 16.054h20.79v-159.683z" fill="#e7eced"/><path d="m93.356 0h-45.356v159.684h45.356a16.062 16.062 0 0 0 16.06-16.06v-127.564a16.062 16.062 0 0 0 -16.06-16.06z" fill="#e7eced" transform="translate(240.583)"/><path d="m121.346 99.842c0-8.168-6.4-18.425-15.612-18.425-8.955 0-15 10.257-15 18.425l-.049-61.417c0-8.955-6.32-18.425-15.4-18.425-8.955 0-15.305 9.47-15.256 18.425v110.55c-.049.516-6.381-33.73-17.59-44.939-9.239-9.236-35.672-3.052-21.221 16.976 10.128 14.028 14.243 43.029 14.243 58.671 0 37.839 30.659 49.133 30.659 49.133v6.142c0 7.008-.049 18.425 12.689 18.425h76.433c15.5 0 15.237-11.417 15.287-18.425v-6.142c13.794-18.388 12.332-13.051 12.332-55.275v-42.991c0-8.168-6.369-18.425-15.581-18.425-9.084 0-15.127 10.257-15.127 18.425v-18.425c0-8.168-6.369-18.425-15.833-18.425-8.832 0-14.875 10.257-14.875 18.425z" fill="#fbce9d" transform="translate(83.922 96.616)"/><g fill="#ea7f5f"><path d="m44.135 66.708a6.144 6.144 0 0 1 -6.142-6.142v-18.424a6.142 6.142 0 1 1 12.283 0v18.425a6.144 6.144 0 0 1 -6.141 6.141z" transform="translate(191.565 181.085)"/><path d="m39.135 70.85a6.144 6.144 0 0 1 -6.142-6.142v-24.566a6.142 6.142 0 1 1 12.283 0v24.566a6.144 6.144 0 0 1 -6.141 6.142z" transform="translate(165.856 170.802)"/><path d="m34.127 86.275h-.006a6.14 6.14 0 0 1 -6.136-6.148l.049-42.992a6.143 6.143 0 0 1 6.142-6.135h.006a6.14 6.14 0 0 1 6.136 6.148l-.05 42.992a6.147 6.147 0 0 1 -6.141 6.135z" transform="translate(140.107 155.377)"/></g><g fill="#afb6bb"><path d="m8.142 83.7a6.144 6.144 0 0 1 -6.142-6.142v-61.416a6.142 6.142 0 0 1 12.283 0v61.416a6.144 6.144 0 0 1 -6.141 6.142z" transform="translate(10.283 50.065)"/><path d="m8.142 22.425a6.144 6.144 0 0 1 -6.142-6.142v-6.141a6.142 6.142 0 1 1 12.283 0v6.142a6.144 6.144 0 0 1 -6.141 6.141z" transform="translate(10.283 20.567)"/><path d="m75.567 20.8v15.25a10.8 10.8 0 0 1 -10.8 10.8h-2.967a10.8 10.8 0 0 1 -10.8-10.803v-15.247a10.8 10.8 0 0 1 10.8-10.8h2.97a10.8 10.8 0 0 1 10.797 10.8z" transform="translate(256.008 50.221)"/></g><path d="m193.25 19.283h-178.108a6.142 6.142 0 1 1 0-12.283h178.108a6.142 6.142 0 1 1 0 12.283z" fill="#75348b" transform="translate(44.203 35.992)"/><path d="m54.283 19.283h-6.141a6.142 6.142 0 1 1 0-12.283h6.142a6.142 6.142 0 0 1 0 12.283z" fill="#dd352e" transform="translate(211.203 35.992)"/><path d="m198.25 15.283h-178.108a6.142 6.142 0 0 1 0-12.283h178.108a6.142 6.142 0 0 1 0 12.283z" fill="#ebba16" transform="translate(68.76 15.425)"/><path d="m21.283 15.283h-6.141a6.142 6.142 0 1 1 0-12.283h6.142a6.142 6.142 0 0 1 0 12.283z" fill="#dd352e" transform="translate(45.258 15.425)"/><path d="m104.983 82.558a6.144 6.144 0 0 1 -6.142-6.142v-15.353a33.779 33.779 0 0 0 -67.558 0v15.354a6.142 6.142 0 1 1 -12.283 0v-15.354a46.063 46.063 0 0 1 92.125 0v15.354a6.144 6.144 0 0 1 -6.142 6.141z" fill="#366db6" transform="translate(94.945 75.141)"/><path d="m150.117 84.7a6.144 6.144 0 0 1 -6.142-6.142c0-31.513-25.083-55.275-58.346-55.275s-58.346 23.762-58.346 55.275a6.142 6.142 0 0 1 -12.283 0c0-37.881 31.028-67.558 70.629-67.558s70.629 29.677 70.629 67.558a6.144 6.144 0 0 1 -6.141 6.142z" fill="#5a91cc" transform="translate(74.461 55.072)"/></g></g></svg>