<svg height="20" viewBox="0 0 20 20" width="20" xmlns="http://www.w3.org/2000/svg"><circle cx="10" cy="10" fill="#7bc950" r="10"/><path d="m195.791 440c0 .495.56.9 1.252.9s1.252-.4 1.252-.9z" fill="#2f4859" transform="translate(-187.006 -423.449)"/><path d="m103 62.356a4.5 4.5 0 0 0 -4.049 3.993 4.24 4.24 0 0 0 1.381 3.419 2.414 2.414 0 0 1 .807 1.776h4.291a2.312 2.312 0 0 1 .76-1.734 4.243 4.243 0 0 0 1.437-3.181 4.318 4.318 0 0 0 -4.627-4.273z" fill="#fcd462" transform="translate(-93.283 -57.908)"/><ellipse cx="10" cy="8.808" fill="#f6c358" rx="3.295" ry="3.234"/><g fill="#d5d6db"><path d="m226.285 1.372a.257.257 0 0 1 -.257-.257v-.858a.257.257 0 0 1 .257-.257.257.257 0 0 1 .257.257v.857a.257.257 0 0 1 -.257.257z" transform="translate(-216.285 2.465)"/><path d="m114.992 37.525a.257.257 0 0 1 -.359-.057l-.5-.693a.257.257 0 0 1 .057-.359.257.257 0 0 1 .359.057l.5.693a.257.257 0 0 1 -.057.359z" transform="translate(-107.919 -32.749)"/><path d="m114.992 37.525a.257.257 0 0 1 -.359-.057l-.5-.693a.257.257 0 0 1 .057-.359.257.257 0 0 1 .359.057l.5.693a.257.257 0 0 1 -.057.359z" transform="translate(-107.919 -32.749)"/><path d="m46.213 132.189a.257.257 0 0 1 -.324.165l-.815-.265a.257.257 0 0 1 -.165-.324.257.257 0 0 1 .324-.165l.815.265a.257.257 0 0 1 .165.324z" transform="translate(-40.951 -124.91)"/><path d="m46.213 132.189a.257.257 0 0 1 -.324.165l-.815-.265a.257.257 0 0 1 -.165-.324.257.257 0 0 1 .324-.165l.815.265a.257.257 0 0 1 .165.324z" transform="translate(-40.951 -124.91)"/><path d="m381.421 132.188a.257.257 0 0 1 .165-.324l.815-.265a.257.257 0 0 1 .324.165.257.257 0 0 1 -.165.324l-.815.265a.257.257 0 0 1 -.324-.165z" transform="translate(-366.684 -124.909)"/><path d="m381.421 132.188a.257.257 0 0 1 .165-.324l.815-.265a.257.257 0 0 1 .324.165.257.257 0 0 1 -.165.324l-.815.265a.257.257 0 0 1 -.324-.165z" transform="translate(-366.684 -124.91)"/><path d="m322.165 37.525a.257.257 0 0 1 -.057-.359l.5-.693a.257.257 0 0 1 .359-.057.257.257 0 0 1 .057.359l-.5.693a.257.257 0 0 1 -.359.057z" transform="translate(-309.238 -32.749)"/></g><path d="m196.931 208.767h-.774a.148.148 0 0 1 -.146-.12l-.694-3.582a.143.143 0 0 1 0-.028v-1.162a.148.148 0 0 1 .253-.1 1.379 1.379 0 0 0 1.954 0 .148.148 0 0 1 .253.1v1.162a.145.145 0 0 1 0 .028l-.694 3.582a.148.148 0 0 1 -.152.12zm-.652-.3h.53l.669-3.448v-.834a1.678 1.678 0 0 1 -1.867 0v.834z" fill="#dc8744" transform="translate(-186.544 -194.709)"/><path d="m159.377 353.2a.476.476 0 0 0 -.476-.476h-4.258a.474.474 0 0 0 -.4.223l4.86.683a.475.475 0 0 0 .274-.43z" fill="#3a556a" transform="translate(-146.771 -338.971)"/><path d="m151.981 359.782a.474.474 0 0 0 .4.728h4.257a.472.472 0 0 0 .2-.046z" fill="#64798a" transform="translate(-144.515 -345.8)"/><path d="m159.377 381.817a.476.476 0 0 0 -.476-.476h-4.258a.474.474 0 0 0 -.4.223l4.86.683a.475.475 0 0 0 .274-.43z" fill="#3a556a" transform="translate(-146.771 -366.648)"/><path d="m151.982 388.393a.474.474 0 0 0 .4.728h4.257a.472.472 0 0 0 .2-.046z" fill="#64798a" transform="translate(-144.516 -373.476)"/><path d="m159.377 410.428a.476.476 0 0 0 -.476-.476h-4.258a.474.474 0 0 0 -.4.223l4.86.683a.475.475 0 0 0 .274-.43z" fill="#3a556a" transform="translate(-146.771 -394.352)"/><path d="m151.981 417.005a.474.474 0 0 0 .4.728h4.257a.471.471 0 0 0 .2-.046z" fill="#64798a" transform="translate(-144.515 -401.182)"/></svg>