<svg height="20" viewBox="0 0 20 20" width="20" xmlns="http://www.w3.org/2000/svg" xmlns:xlink="http://www.w3.org/1999/xlink"><clipPath id="a"><path d="m0 0h20v20h-20z" transform="translate(0 .344)"/></clipPath><g clip-path="url(#a)" transform="translate(0 -.344)"><circle cx="10" cy="10" fill="#00a9fb" r="10" transform="translate(0 .344)"/><path d="m41.667 38v1.778h-4.667a6.657 6.657 0 0 1 .276-.889h.489c.268 0 .489-.4.489-.889z" fill="#c03a2b" transform="translate(-25.222 -25.683)"/><path d="m47.112 36.222v.667h-3.112v-.889h2.889a.222.222 0 0 1 .223.222z" fill="#393f4a" transform="translate(-30.667 -24.128)"/><path d="m47 4h1.556v2.667h-1.556z" fill="#f5efca" transform="translate(-33 .76)"/><path d="m42 4h1.334v2.667h-1.334z" fill="#285680" transform="translate(-29.111 .76)"/><path d="m54.111 4.222v2.223a.222.222 0 0 1 -.222.222h-.889v-2.667h.889a.222.222 0 0 1 .222.222z" fill="#c03a2b" transform="translate(-37.666 .76)"/><path d="m42 20h3.334a.222.222 0 0 1 .222.222v2.223a.222.222 0 0 1 -.222.222h-3.334z" fill="#f5efca" transform="translate(-29.111 -11.684)"/><ellipse cx=".449" cy=".43" fill="#c03a2b" rx=".449" ry=".43" transform="translate(14.453 9.223)"/><path d="m1.111.09.889 9.335a1.3 1.3 0 0 0 -.72.371c-.242.24-1.28.573-1.28.942v-9.338a1.331 1.331 0 0 1 1.111-1.31z" fill="#c03a2b" transform="translate(3.554 3.801)"/><path d="m37.35 47.222v.667a.669.669 0 0 1 -.667.667h-.222c-.036-.049-.636-.322-.667-.373a2.635 2.635 0 0 1 -.184-.371 2.153 2.153 0 0 1 -.16-.812z" fill="#b19046" transform="translate(-24.017 -32.683)"/><path d="m13.668.444v8.446c0 .244-.2.667-.445.667l-8-.02a1.14 1.14 0 0 0 -.22.02h-.003v-9.537a1.216 1.216 0 0 1 .222-.02h8a.446.446 0 0 1 .444.445z" fill="#f0c419" transform="translate(-.335 3.871)"/><path d="m9.318 44.875c-7.883 0-7.447.007-7.579-.012a1.239 1.239 0 0 1 -.094-2.469c.866 0-2.983-.019 7.674-.019a2 2 0 0 0 0 2.5z" fill="#f5efca" transform="translate(3.126 -29.086)"/><path d="m8 47.445h-3.778a.222.222 0 1 1 0-.445h3.778a.222.222 0 1 1 0 .445z" fill="#cbb292" transform="translate(.443 -32.683)"/><path d="m17.636 8.191a3.015 3.015 0 0 1 -1.036 1.289 2.8 2.8 0 0 0 -.678-.138 2.968 2.968 0 0 0 -.922.058 2.161 2.161 0 0 0 -.925.516 2.986 2.986 0 0 1 -.8-.351 2.8 2.8 0 0 0 .1-.449 2.638 2.638 0 0 0 -.06-.66c-.051-.458.264-.813.3-1.256a.361.361 0 0 0 -.233-.38c-.22-.1-.471-.1-.689-.189a1.041 1.041 0 0 1 -.578-.8 2.983 2.983 0 0 1 .516-.8 5.5 5.5 0 0 0 1.369-.163 1.471 1.471 0 0 0 1.073-.838 2.989 2.989 0 0 1 1.134.3 2.308 2.308 0 0 1 -.927.66.952.952 0 0 0 -.563.62c-.073.407.318.653.66.729.407.091.771.318.773.776a1.627 1.627 0 0 1 -.124.56 2.153 2.153 0 0 0 -.2.667.427.427 0 0 0 .531.424 1.243 1.243 0 0 0 .518-.216c.018-.011.036-.022.053-.036a2.1 2.1 0 0 1 .711-.333z" fill="#2fa8cc" transform="translate(-5.872 .737)"/><path d="m12.447 14.74a2.638 2.638 0 0 1 .06.66 2.8 2.8 0 0 1 -.1.449 3 3 0 0 1 -1.154-3.738 1.041 1.041 0 0 0 .578.8c.218.089.469.093.689.189a.361.361 0 0 1 .233.38c-.038.442-.353.8-.3 1.256z" fill="#4fba6f" transform="translate(-5.001 -5.55)"/><path d="m16.874 4.007a1.471 1.471 0 0 1 -1.074.838 5.5 5.5 0 0 1 -1.36.155 2.992 2.992 0 0 1 2.236-1c.067 0 .131 0 .198.007z" fill="#b0d3f0" transform="translate(-7.677 .76)"/><path d="m23.425 28.015a3 3 0 0 1 -2.525.436 2.161 2.161 0 0 1 .925-.516 2.968 2.968 0 0 1 .922-.06 2.8 2.8 0 0 1 .678.138z" fill="#b0d3f0" transform="translate(-12.701 -17.801)"/><path d="m26.908 8.089a3.006 3.006 0 0 1 -.236 1.167 2.1 2.1 0 0 0 -.711.333l-.053.036a1.243 1.243 0 0 1 -.518.216.427.427 0 0 1 -.531-.424 2.153 2.153 0 0 1 .2-.667 1.627 1.627 0 0 0 .124-.56c0-.458-.367-.685-.773-.776-.342-.076-.733-.322-.66-.729a.952.952 0 0 1 .563-.62 2.308 2.308 0 0 0 .927-.66 3 3 0 0 1 1.669 2.689z" fill="#4fba6f" transform="translate(-14.908 -.329)"/><path d="m19 34.445h-3.778a.222.222 0 1 1 0-.445h3.778a.222.222 0 1 1 0 .445z" fill="#f29c1f" transform="translate(-8.112 -22.572)"/><path d="m1.207 40.9c.1-.02-.426-.013 7.923-.013a.669.669 0 0 0 .667-.667v-.22a.446.446 0 0 1 -.445.445h-8a1.32 1.32 0 0 0 -.96 2.236 1.419 1.419 0 0 0 .993.431h7.745a.669.669 0 0 0 .667-.667v-.667a.222.222 0 0 0 -.445 0v.667a.222.222 0 0 1 -.222.222h-7.73a.93.93 0 0 1 -.942-.922.888.888 0 0 1 .749-.845zm7.574 2.009-.024-.044z" fill="#e64c3c" transform="translate(3.536 -27.239)"/><path d="m10.456 50.2-.468-.234a.222.222 0 0 0 -.2 0l-.468.234a.222.222 0 0 1 -.32-.2v-2h1.778v2a.222.222 0 0 1 -.322.2z" fill="#c03a2b" transform="translate(-3.446 -33.461)"/><path d="m42.445 43.99v.667a.222.222 0 0 1 -.222.222h-4.223a2.139 2.139 0 0 1 .194-.889z" fill="#f0c419" transform="translate(-26 -30.339)"/></g></svg>