<svg height="20" viewBox="0 0 20 20" width="20" xmlns="http://www.w3.org/2000/svg"><circle cx="10" cy="10" fill="#ffba07" r="10"/><path d="m37.892 130.616a5.891 5.891 0 0 1 -2.763 4.995 8.029 8.029 0 0 1 -3.133.428 8.03 8.03 0 0 1 -3.133-.428 5.9 5.9 0 1 1 9.029-5z" fill="#48588b" transform="translate(-23.1 -119.841)"/><path d="m225.636 130.616a5.891 5.891 0 0 1 -2.763 5 8.03 8.03 0 0 1 -3.133.428v-11.324a5.9 5.9 0 0 1 5.896 5.896z" fill="#3c4a83" transform="translate(-210.844 -119.84)"/><circle cx="1.702" cy="1.702" fill="#f9c4b9" r="1.702" transform="matrix(.23004974 -.97317887 .97317887 .23004974 6.847 11.256)"/><path d="m221.442 238.272a1.7 1.7 0 0 1 -1.7 1.7v-3.4a1.7 1.7 0 0 1 1.7 1.7z" fill="#ffb19e" transform="translate(-210.844 -228.285)"/><path d="m123.1 350.846v1.625a5.9 5.9 0 0 1 -6.267 0v-1.625a2.456 2.456 0 0 1 2.456-2.456h1.356a2.456 2.456 0 0 1 2.455 2.456z" fill="#60e2f4" transform="translate(-111.067 -336.7)"/><path d="m222.873 350.846v1.625a5.865 5.865 0 0 1 -3.133.9v-4.981h.678a2.456 2.456 0 0 1 2.455 2.456z" fill="#29c5ec" transform="translate(-210.844 -336.7)"/><path d="m335.865 1.916v1.029h-.913v-1.029a1 1 0 0 0 -2.006 0v1.029h-.913v-1.029a1.916 1.916 0 0 1 3.833 0z" fill="#cddbf9" transform="translate(-319.717 1.082)"/><path d="m396.888 1.916v1.029h-.913v-1.029a1 1 0 0 0 -1-1v-.916a1.919 1.919 0 0 1 1.916 1.916z" fill="#afc2e8" transform="translate(-380.741 1.082)"/><path d="m304.03 81.73v5.1h2.312l.457-.327.457.327h2.312v-5.1z" fill="#fea000" transform="translate(-292.568 -78.159)"/><path d="m397.739 81.73v5.1h-2.312l-.457-.327v-4.773z" fill="#f78002" transform="translate(-380.739 -78.159)"/><path d="m379.972 150.45h.913v3.006h-.913z" fill="#fbe200" transform="translate(-366.197 -144.787)"/><path d="m394.972 150.45h.457v3.006h-.457z" fill="#febf01" transform="translate(-380.741 -144.787)"/></svg>