<svg height="20" viewBox="0 0 20 20" width="20" xmlns="http://www.w3.org/2000/svg" xmlns:xlink="http://www.w3.org/1999/xlink"><clipPath id="a"><path d="m0 0h20v20h-20z" transform="translate(0 .339)"/></clipPath><g clip-path="url(#a)" transform="translate(0 -.339)"><circle cx="10" cy="10" fill="#ffcd4b" r="10" transform="translate(0 .339)"/><path d="m5.2 146.751h-4.767a.433.433 0 0 1 -.433-.433v-4.764a.433.433 0 0 1 .433-.433h4.767a.433.433 0 0 1 .433.433v4.764a.433.433 0 0 1 -.433.433" fill="#42b05c" transform="translate(3.26 -133.669)"/><g fill="#fff"><path d="m28.864 176.863h-2.164a.217.217 0 1 1 0-.433h2.166a.217.217 0 1 1 0 .433" transform="translate(-22.572 -168.112)"/><path d="m55.564 212.174h-2.382a.217.217 0 1 1 0-.433h2.382a.217.217 0 1 1 0 .433" transform="translate(-48.405 -202.557)"/><path d="m28.864 247.484h-2.164a.217.217 0 1 1 0-.433h2.166a.217.217 0 1 1 0 .433" transform="translate(-22.572 -237.001)"/><path d="m27.565 282.794h-.865a.217.217 0 0 1 0-.433h.866a.217.217 0 0 1 0 .433" transform="translate(-22.572 -271.444)"/><path d="m46.087 318.105h-1.732a.217.217 0 0 1 0-.433h1.732a.217.217 0 0 1 0 .433" transform="translate(-39.795 -305.889)"/></g><path d="m287.68 146.751h-4.764a.433.433 0 0 1 -.433-.433v-4.764a.433.433 0 0 1 .433-.433h4.764a.433.433 0 0 1 .433.433v4.764a.433.433 0 0 1 -.433.433" fill="#ed7161" transform="translate(-271.367 -133.669)"/><g fill="#fff"><path d="m311.347 176.863h-2.165a.217.217 0 1 1 0-.433h2.165a.217.217 0 0 1 0 .433" transform="translate(-297.199 -168.112)"/><path d="m338.047 212.174h-2.382a.217.217 0 1 1 0-.433h2.382a.217.217 0 1 1 0 .433" transform="translate(-323.032 -202.557)"/><path d="m311.347 247.484h-2.165a.217.217 0 1 1 0-.433h2.165a.217.217 0 0 1 0 .433" transform="translate(-297.199 -237.001)"/><path d="m310.048 282.794h-.866a.217.217 0 1 1 0-.433h.866a.217.217 0 1 1 0 .433" transform="translate(-297.199 -271.444)"/><path d="m328.569 318.105h-1.732a.217.217 0 0 1 0-.433h1.732a.217.217 0 0 1 0 .433" transform="translate(-314.421 -305.889)"/></g><path d="m329.458 13.68a.217.217 0 0 1 -.069-.422l1.246-.418-.418-1.247a.217.217 0 0 1 .411-.138l.487 1.452a.217.217 0 0 1 -.137.274l-1.452.487a.219.219 0 0 1 -.069.011" fill="#48a0dc" transform="translate(-317.442 -7.484)"/><path d="m113.079 36.489a.215.215 0 0 1 -.1-.022 7.149 7.149 0 0 0 -6.739 0 .216.216 0 0 1 -.191-.388 7.577 7.577 0 0 1 7.121 0 .217.217 0 0 1 -.1.411" fill="#48a0dc" transform="translate(-99.61 -30.779)"/><path d="m106.63 406.383a.217.217 0 0 1 -.205-.148l-.487-1.452a.217.217 0 0 1 .137-.274l1.452-.487a.217.217 0 1 1 .138.411l-1.246.418.418 1.247a.217.217 0 0 1 -.136.274.219.219 0 0 1 -.069.011" fill="#48a0dc" transform="translate(-99.605 -389.667)"/><path d="m109.614 425.147a7.544 7.544 0 0 1 -3.56-.889.216.216 0 0 1 .191-.388 7.149 7.149 0 0 0 6.739 0 .216.216 0 0 1 .191.388 7.544 7.544 0 0 1 -3.56.889" fill="#48a0dc" transform="translate(-99.61 -409.018)"/></g></svg>