<svg height="20" viewBox="0 0 20 20" width="20" xmlns="http://www.w3.org/2000/svg" xmlns:xlink="http://www.w3.org/1999/xlink"><clipPath id="a"><path d="m0 0h20v20h-20z" transform="translate(0 .372)"/></clipPath><g clip-path="url(#a)" transform="translate(0 -.371)"><circle cx="10" cy="10" fill="#7bc950" r="10" transform="translate(0 .372)"/><path d="m15.346 6.5h10.907v12.891h-10.907z" fill="#e1ebf0" transform="translate(-10.796 -2.854)"/><path d="m24.192 24.192h4.445v1.975h-4.445z" fill="#e97b83" transform="translate(-18.654 -18.561)"/><path d="m77.5 86.367h2.941v1.975h-2.941z" fill="#23ceb0" transform="translate(-65.968 -73.762)"/><path d="m77.5 24.038h2.938v5.45h-2.938z" fill="#a0cafe" transform="translate(-65.968 -18.421)"/><path d="m33.761 57.115-.732-.544 2.881-3.655a.325.325 0 0 1 .522.388z" fill="#c7cfd4" transform="translate(-26.493 -43.949)"/><path d="m26.051 87.166c.207.586-.232.921-1.053 1.1a1.063 1.063 0 0 0 -.506.274c-.337-.872-.079-1.818.828-1.919z" fill="#e97b83" transform="translate(-18.795 -73.989)"/></g></svg>