<svg height="20" viewBox="0 0 20 20" width="20" xmlns="http://www.w3.org/2000/svg" xmlns:xlink="http://www.w3.org/1999/xlink"><clipPath id="a"><path d="m0 0h20v20h-20z" transform="translate(0 -.454)"/></clipPath><g clip-path="url(#a)" transform="translate(0 .454)"><circle cx="10" cy="10" fill="#e34a4a" r="10" transform="translate(0 -.454)"/><g transform="translate(3.164 4.452)"><path d="m5 0v6.238h10.556v-6.238z" fill="#28384c" transform="translate(-3.8)"/><path d="m.627 0a.627.627 0 0 0 -.627.627v4.984a.627.627 0 0 0 .627.627h.812v-6.238z" fill="#e7eced"/><path d="m49.772 0h-1.772v6.238h1.772a.627.627 0 0 0 .628-.628v-4.983a.627.627 0 0 0 -.628-.627z" fill="#e7eced" transform="translate(-36.727)"/><path d="m21.061 23.119a.707.707 0 0 0 -.61-.72c-.35 0-.586.4-.586.72v-2.4a.609.609 0 1 0 -1.2 0v4.318a4.737 4.737 0 0 0 -.687-1.755c-.361-.361-1.393-.119-.829.663a4.717 4.717 0 0 1 .556 2.292 2.006 2.006 0 0 0 1.2 1.919v.24c0 .274 0 .72.5.72h2.986c.605 0 .6-.446.6-.72v-.24c.539-.718.482-.51.482-2.159v-1.679a.706.706 0 0 0 -.609-.72c-.355 0-.591.4-.591.72v-.718a.706.706 0 0 0 -.618-.72c-.345 0-.581.4-.581.72z" fill="#fbce9d" transform="translate(-13.043 -15.445)"/><g fill="#ea7f5f"><path d="m38.233 37.2a.24.24 0 0 1 -.24-.24v-.72a.24.24 0 1 1 .48 0v.72a.24.24 0 0 1 -.24.24z" transform="translate(-29.026 -27.52)"/><path d="m33.233 35.439a.24.24 0 0 1 -.24-.24v-.96a.24.24 0 1 1 .48 0v.96a.24.24 0 0 1 -.24.24z" transform="translate(-25.226 -26)"/><path d="m28.225 33.159a.24.24 0 0 1 -.24-.24v-1.679a.24.24 0 0 1 .24-.24.24.24 0 0 1 .24.24v1.679a.24.24 0 0 1 -.24.24z" transform="translate(-21.419 -23.72)"/></g><g fill="#afb6bb"><path d="m2.24 12.879a.24.24 0 0 1 -.24-.24v-2.4a.24.24 0 1 1 .48 0v2.4a.24.24 0 0 1 -.24.24z" transform="translate(-1.52 -7.654)"/><path d="m2.24 4.72a.24.24 0 0 1 -.24-.24v-.24a.24.24 0 1 1 .48 0v.24a.24.24 0 0 1 -.24.24z" transform="translate(-1.52 -3.04)"/><path d="m51.96 10.422v.6a.422.422 0 0 1 -.422.422h-.116a.422.422 0 0 1 -.422-.427v-.6a.422.422 0 0 1 .422-.417h.116a.422.422 0 0 1 .422.422z" transform="translate(-39.007 -7.648)"/></g><path d="m16.2 7.479h-6.96a.24.24 0 1 1 0-.48h6.96a.24.24 0 1 1 0 .48z" fill="#75348b" transform="translate(-6.922 -5.32)"/><path d="m42.48 7.479h-.24a.24.24 0 1 1 0-.48h.24a.24.24 0 1 1 0 .48z" fill="#dd352e" transform="translate(-32.109 -5.32)"/><path d="m21.2 3.479h-6.96a.24.24 0 1 1 0-.48h6.96a.24.24 0 1 1 0 .48z" fill="#ebba16" transform="translate(-10.767 -2.28)"/><path d="m9.48 3.479h-.24a.24.24 0 1 1 0-.48h.24a.24.24 0 1 1 0 .48z" fill="#dd352e" transform="translate(-6.881 -2.28)"/><path d="m22.358 17.639a.24.24 0 0 1 -.24-.24v-.6a1.319 1.319 0 0 0 -2.639 0v.6a.24.24 0 1 1 -.48 0v-.6a1.8 1.8 0 1 1 3.6 0v.6a.24.24 0 0 1 -.241.24z" fill="#366db6" transform="translate(-14.549 -11.479)"/><path d="m20.278 13.879a.24.24 0 0 1 -.24-.24 2.173 2.173 0 0 0 -2.279-2.159 2.173 2.173 0 0 0 -2.279 2.159.24.24 0 1 1 -.48 0 2.762 2.762 0 0 1 5.518 0 .24.24 0 0 1 -.24.24z" fill="#5a91cc" transform="translate(-11.505 -8.419)"/></g></g></svg>