<svg height="143" viewBox="0 0 114 143" width="114" xmlns="http://www.w3.org/2000/svg" xmlns:xlink="http://www.w3.org/1999/xlink"><defs><path id="a" d="m28.0066089.85693653 20.5066089 11.83949617c1.5470054.893164 2.5 2.5437991 2.5 4.330127v23.6789923c0 1.786328-.9529946 3.4369631-2.5 4.3301271l-20.5066089 11.8394961c-1.5470054.893164-3.4529946.893164-5 0l-20.5066089-11.8394961c-1.54700538-.893164-2.5-2.5437991-2.5-4.3301271v-23.6789923c0-1.7863279.95299462-3.436963 2.5-4.330127l20.5066089-11.83949617c1.5470054-.89316397 3.4529946-.89316397 5 0z"/><path id="b" d="m28.0066089.85693653 20.5066089 11.83949617c1.5470054.893164 2.5 2.5437991 2.5 4.330127v23.6789923c0 1.786328-.9529946 3.4369631-2.5 4.3301271l-20.5066089 11.8394961c-1.5470054.893164-3.4529946.893164-5 0l-20.5066089-11.8394961c-1.54700538-.893164-2.5-2.5437991-2.5-4.3301271v-23.6789923c0-1.7863279.95299462-3.436963 2.5-4.330127l20.5066089-11.83949617c1.5470054-.89316397 3.4529946-.89316397 5 0z"/><path id="c" d="m28.0066089.85693653 20.5066089 11.83949617c1.5470054.893164 2.5 2.5437991 2.5 4.330127v23.6789923c0 1.786328-.9529946 3.4369631-2.5 4.3301271l-20.5066089 11.8394961c-1.5470054.893164-3.4529946.893164-5 0l-20.5066089-11.8394961c-1.54700538-.893164-2.5-2.5437991-2.5-4.3301271v-23.6789923c0-1.7863279.95299462-3.436963 2.5-4.330127l20.5066089-11.83949617c1.5470054-.89316397 3.4529946-.89316397 5 0z"/><path id="d" d="m28.0066089.85693653 20.5066089 11.83949617c1.5470054.893164 2.5 2.5437991 2.5 4.330127v23.6789923c0 1.786328-.9529946 3.4369631-2.5 4.3301271l-20.5066089 11.8394961c-1.5470054.893164-3.4529946.893164-5 0l-20.5066089-11.8394961c-1.54700538-.893164-2.5-2.5437991-2.5-4.3301271v-23.6789923c0-1.7863279.95299462-3.436963 2.5-4.330127l20.5066089-11.83949617c1.5470054-.89316397 3.4529946-.89316397 5 0z"/><path id="e" d="m28.0066089.85693653 20.5066089 11.83949617c1.5470054.893164 2.5 2.5437991 2.5 4.330127v23.6789923c0 1.786328-.9529946 3.4369631-2.5 4.3301271l-20.5066089 11.8394961c-1.5470054.893164-3.4529946.893164-5 0l-20.5066089-11.8394961c-1.54700538-.893164-2.5-2.5437991-2.5-4.3301271v-23.6789923c0-1.7863279.95299462-3.436963 2.5-4.330127l20.5066089-11.83949617c1.5470054-.89316397 3.4529946-.89316397 5 0z"/><path id="f" d="m28.0066089.85693653 20.5066089 11.83949617c1.5470054.893164 2.5 2.5437991 2.5 4.330127v23.6789923c0 1.786328-.9529946 3.4369631-2.5 4.3301271l-20.5066089 11.8394961c-1.5470054.893164-3.4529946.893164-5 0l-20.5066089-11.8394961c-1.54700538-.893164-2.5-2.5437991-2.5-4.3301271v-23.6789923c0-1.7863279.95299462-3.436963 2.5-4.330127l20.5066089-11.83949617c1.5470054-.89316397 3.4529946-.89316397 5 0z"/><path id="g" d="m28.0066089.85693653 20.5066089 11.83949617c1.5470054.893164 2.5 2.5437991 2.5 4.330127v23.6789923c0 1.786328-.9529946 3.4369631-2.5 4.3301271l-20.5066089 11.8394961c-1.5470054.893164-3.4529946.893164-5 0l-20.5066089-11.8394961c-1.54700538-.893164-2.5-2.5437991-2.5-4.3301271v-23.6789923c0-1.7863279.95299462-3.436963 2.5-4.330127l20.5066089-11.83949617c1.5470054-.89316397 3.4529946-.89316397 5 0z"/><path id="h" d="m28.0066089.85693653 20.5066089 11.83949617c1.5470054.893164 2.5 2.5437991 2.5 4.330127v23.6789923c0 1.786328-.9529946 3.4369631-2.5 4.3301271l-20.5066089 11.8394961c-1.5470054.893164-3.4529946.893164-5 0l-20.5066089-11.8394961c-1.54700538-.893164-2.5-2.5437991-2.5-4.3301271v-23.6789923c0-1.7863279.95299462-3.436963 2.5-4.330127l20.5066089-11.83949617c1.5470054-.89316397 3.4529946-.89316397 5 0z"/><path id="i" d="m28.0066089.85693653 20.5066089 11.83949617c1.5470054.893164 2.5 2.5437991 2.5 4.330127v23.6789923c0 1.786328-.9529946 3.4369631-2.5 4.3301271l-20.5066089 11.8394961c-1.5470054.893164-3.4529946.893164-5 0l-20.5066089-11.8394961c-1.54700538-.893164-2.5-2.5437991-2.5-4.3301271v-23.6789923c0-1.7863279.95299462-3.436963 2.5-4.330127l20.5066089-11.83949617c1.5470054-.89316397 3.4529946-.89316397 5 0z"/><path id="j" d="m28.0066089.85693653 20.5066089 11.83949617c1.5470054.893164 2.5 2.5437991 2.5 4.330127v23.6789923c0 1.786328-.9529946 3.4369631-2.5 4.3301271l-20.5066089 11.8394961c-1.5470054.893164-3.4529946.893164-5 0l-20.5066089-11.8394961c-1.54700538-.893164-2.5-2.5437991-2.5-4.3301271v-23.6789923c0-1.7863279.95299462-3.436963 2.5-4.330127l20.5066089-11.83949617c1.5470054-.89316397 3.4529946-.89316397 5 0z"/><path id="k" d="m28.0066089.85693653 20.5066089 11.83949617c1.5470054.893164 2.5 2.5437991 2.5 4.330127v23.6789923c0 1.786328-.9529946 3.4369631-2.5 4.3301271l-20.5066089 11.8394961c-1.5470054.893164-3.4529946.893164-5 0l-20.5066089-11.8394961c-1.54700538-.893164-2.5-2.5437991-2.5-4.3301271v-23.6789923c0-1.7863279.95299462-3.436963 2.5-4.330127l20.5066089-11.83949617c1.5470054-.89316397 3.4529946-.89316397 5 0z"/><path id="l" d="m28.0066089.85693653 20.5066089 11.83949617c1.5470054.893164 2.5 2.5437991 2.5 4.330127v23.6789923c0 1.786328-.9529946 3.4369631-2.5 4.3301271l-20.5066089 11.8394961c-1.5470054.893164-3.4529946.893164-5 0l-20.5066089-11.8394961c-1.54700538-.893164-2.5-2.5437991-2.5-4.3301271v-23.6789923c0-1.7863279.95299462-3.436963 2.5-4.330127l20.5066089-11.83949617c1.5470054-.89316397 3.4529946-.89316397 5 0z"/><path id="m" d="m28.0066089.85693653 20.5066089 11.83949617c1.5470054.893164 2.5 2.5437991 2.5 4.330127v23.6789923c0 1.786328-.9529946 3.4369631-2.5 4.3301271l-20.5066089 11.8394961c-1.5470054.893164-3.4529946.893164-5 0l-20.5066089-11.8394961c-1.54700538-.893164-2.5-2.5437991-2.5-4.3301271v-23.6789923c0-1.7863279.95299462-3.436963 2.5-4.330127l20.5066089-11.83949617c1.5470054-.89316397 3.4529946-.89316397 5 0z"/><path id="n" d="m28.0066089.85693653 20.5066089 11.83949617c1.5470054.893164 2.5 2.5437991 2.5 4.330127v23.6789923c0 1.786328-.9529946 3.4369631-2.5 4.3301271l-20.5066089 11.8394961c-1.5470054.893164-3.4529946.893164-5 0l-20.5066089-11.8394961c-1.54700538-.893164-2.5-2.5437991-2.5-4.3301271v-23.6789923c0-1.7863279.95299462-3.436963 2.5-4.330127l20.5066089-11.83949617c1.5470054-.89316397 3.4529946-.89316397 5 0z"/><path id="o" d="m28.0066089.85693653 20.5066089 11.83949617c1.5470054.893164 2.5 2.5437991 2.5 4.330127v23.6789923c0 1.786328-.9529946 3.4369631-2.5 4.3301271l-20.5066089 11.8394961c-1.5470054.893164-3.4529946.893164-5 0l-20.5066089-11.8394961c-1.54700538-.893164-2.5-2.5437991-2.5-4.3301271v-23.6789923c0-1.7863279.95299462-3.436963 2.5-4.330127l20.5066089-11.83949617c1.5470054-.89316397 3.4529946-.89316397 5 0z"/><path id="p" d="m28.0066089.85693653 20.5066089 11.83949617c1.5470054.893164 2.5 2.5437991 2.5 4.330127v23.6789923c0 1.786328-.9529946 3.4369631-2.5 4.3301271l-20.5066089 11.8394961c-1.5470054.893164-3.4529946.893164-5 0l-20.5066089-11.8394961c-1.54700538-.893164-2.5-2.5437991-2.5-4.3301271v-23.6789923c0-1.7863279.95299462-3.436963 2.5-4.330127l20.5066089-11.83949617c1.5470054-.89316397 3.4529946-.89316397 5 0z"/><path id="q" d="m28.0066089.85693653 20.5066089 11.83949617c1.5470054.893164 2.5 2.5437991 2.5 4.330127v23.6789923c0 1.786328-.9529946 3.4369631-2.5 4.3301271l-20.5066089 11.8394961c-1.5470054.893164-3.4529946.893164-5 0l-20.5066089-11.8394961c-1.54700538-.893164-2.5-2.5437991-2.5-4.3301271v-23.6789923c0-1.7863279.95299462-3.436963 2.5-4.330127l20.5066089-11.83949617c1.5470054-.89316397 3.4529946-.89316397 5 0z"/><path id="r" d="m28.0066089.85693653 20.5066089 11.83949617c1.5470054.893164 2.5 2.5437991 2.5 4.330127v23.6789923c0 1.786328-.9529946 3.4369631-2.5 4.3301271l-20.5066089 11.8394961c-1.5470054.893164-3.4529946.893164-5 0l-20.5066089-11.8394961c-1.54700538-.893164-2.5-2.5437991-2.5-4.3301271v-23.6789923c0-1.7863279.95299462-3.436963 2.5-4.330127l20.5066089-11.83949617c1.5470054-.89316397 3.4529946-.89316397 5 0z"/><path id="s" d="m28.0066089.85693653 20.5066089 11.83949617c1.5470054.893164 2.5 2.5437991 2.5 4.330127v23.6789923c0 1.786328-.9529946 3.4369631-2.5 4.3301271l-20.5066089 11.8394961c-1.5470054.893164-3.4529946.893164-5 0l-20.5066089-11.8394961c-1.54700538-.893164-2.5-2.5437991-2.5-4.3301271v-23.6789923c0-1.7863279.95299462-3.436963 2.5-4.330127l20.5066089-11.83949617c1.5470054-.89316397 3.4529946-.89316397 5 0z"/><path id="t" d="m28.0066089.85693653 20.5066089 11.83949617c1.5470054.893164 2.5 2.5437991 2.5 4.330127v23.6789923c0 1.786328-.9529946 3.4369631-2.5 4.3301271l-20.5066089 11.8394961c-1.5470054.893164-3.4529946.893164-5 0l-20.5066089-11.8394961c-1.54700538-.893164-2.5-2.5437991-2.5-4.3301271v-23.6789923c0-1.7863279.95299462-3.436963 2.5-4.330127l20.5066089-11.83949617c1.5470054-.89316397 3.4529946-.89316397 5 0z"/><path id="u" d="m28.0066089.85693653 20.5066089 11.83949617c1.5470054.893164 2.5 2.5437991 2.5 4.330127v23.6789923c0 1.786328-.9529946 3.4369631-2.5 4.3301271l-20.5066089 11.8394961c-1.5470054.893164-3.4529946.893164-5 0l-20.5066089-11.8394961c-1.54700538-.893164-2.5-2.5437991-2.5-4.3301271v-23.6789923c0-1.7863279.95299462-3.436963 2.5-4.330127l20.5066089-11.83949617c1.5470054-.89316397 3.4529946-.89316397 5 0z"/><path id="v" d="m28.0066089.85693653 20.5066089 11.83949617c1.5470054.893164 2.5 2.5437991 2.5 4.330127v23.6789923c0 1.786328-.9529946 3.4369631-2.5 4.3301271l-20.5066089 11.8394961c-1.5470054.893164-3.4529946.893164-5 0l-20.5066089-11.8394961c-1.54700538-.893164-2.5-2.5437991-2.5-4.3301271v-23.6789923c0-1.7863279.95299462-3.436963 2.5-4.330127l20.5066089-11.83949617c1.5470054-.89316397 3.4529946-.89316397 5 0z"/><path id="w" d="m28.0066089.85693653 20.5066089 11.83949617c1.5470054.893164 2.5 2.5437991 2.5 4.330127v23.6789923c0 1.786328-.9529946 3.4369631-2.5 4.3301271l-20.5066089 11.8394961c-1.5470054.893164-3.4529946.893164-5 0l-20.5066089-11.8394961c-1.54700538-.893164-2.5-2.5437991-2.5-4.3301271v-23.6789923c0-1.7863279.95299462-3.436963 2.5-4.330127l20.5066089-11.83949617c1.5470054-.89316397 3.4529946-.89316397 5 0z"/><path id="x" d="m28.0066089.85693653 20.5066089 11.83949617c1.5470054.893164 2.5 2.5437991 2.5 4.330127v23.6789923c0 1.786328-.9529946 3.4369631-2.5 4.3301271l-20.5066089 11.8394961c-1.5470054.893164-3.4529946.893164-5 0l-20.5066089-11.8394961c-1.54700538-.893164-2.5-2.5437991-2.5-4.3301271v-23.6789923c0-1.7863279.95299462-3.436963 2.5-4.330127l20.5066089-11.83949617c1.5470054-.89316397 3.4529946-.89316397 5 0z"/><path id="y" d="m28.0066089.85693653 20.5066089 11.83949617c1.5470054.893164 2.5 2.5437991 2.5 4.330127v23.6789923c0 1.786328-.9529946 3.4369631-2.5 4.3301271l-20.5066089 11.8394961c-1.5470054.893164-3.4529946.893164-5 0l-20.5066089-11.8394961c-1.54700538-.893164-2.5-2.5437991-2.5-4.3301271v-23.6789923c0-1.7863279.95299462-3.436963 2.5-4.330127l20.5066089-11.83949617c1.5470054-.89316397 3.4529946-.89316397 5 0z"/><path id="z" d="m28.0066089.85693653 20.5066089 11.83949617c1.5470054.893164 2.5 2.5437991 2.5 4.330127v23.6789923c0 1.786328-.9529946 3.4369631-2.5 4.3301271l-20.5066089 11.8394961c-1.5470054.893164-3.4529946.893164-5 0l-20.5066089-11.8394961c-1.54700538-.893164-2.5-2.5437991-2.5-4.3301271v-23.6789923c0-1.7863279.95299462-3.436963 2.5-4.330127l20.5066089-11.83949617c1.5470054-.89316397 3.4529946-.89316397 5 0z"/><path id="A" d="m28.0066089.85693653 20.5066089 11.83949617c1.5470054.893164 2.5 2.5437991 2.5 4.330127v23.6789923c0 1.786328-.9529946 3.4369631-2.5 4.3301271l-20.5066089 11.8394961c-1.5470054.893164-3.4529946.893164-5 0l-20.5066089-11.8394961c-1.54700538-.893164-2.5-2.5437991-2.5-4.3301271v-23.6789923c0-1.7863279.95299462-3.436963 2.5-4.330127l20.5066089-11.83949617c1.5470054-.89316397 3.4529946-.89316397 5 0z"/><path id="B" d="m28.0066089.85693653 20.5066089 11.83949617c1.5470054.893164 2.5 2.5437991 2.5 4.330127v23.6789923c0 1.786328-.9529946 3.4369631-2.5 4.3301271l-20.5066089 11.8394961c-1.5470054.893164-3.4529946.893164-5 0l-20.5066089-11.8394961c-1.54700538-.893164-2.5-2.5437991-2.5-4.3301271v-23.6789923c0-1.7863279.95299462-3.436963 2.5-4.330127l20.5066089-11.83949617c1.5470054-.89316397 3.4529946-.89316397 5 0z"/><path id="C" d="m28.0066089.85693653 20.5066089 11.83949617c1.5470054.893164 2.5 2.5437991 2.5 4.330127v23.6789923c0 1.786328-.9529946 3.4369631-2.5 4.3301271l-20.5066089 11.8394961c-1.5470054.893164-3.4529946.893164-5 0l-20.5066089-11.8394961c-1.54700538-.893164-2.5-2.5437991-2.5-4.3301271v-23.6789923c0-1.7863279.95299462-3.436963 2.5-4.330127l20.5066089-11.83949617c1.5470054-.89316397 3.4529946-.89316397 5 0z"/><path id="D" d="m28.0066089.85693653 20.5066089 11.83949617c1.5470054.893164 2.5 2.5437991 2.5 4.330127v23.6789923c0 1.786328-.9529946 3.4369631-2.5 4.3301271l-20.5066089 11.8394961c-1.5470054.893164-3.4529946.893164-5 0l-20.5066089-11.8394961c-1.54700538-.893164-2.5-2.5437991-2.5-4.3301271v-23.6789923c0-1.7863279.95299462-3.436963 2.5-4.330127l20.5066089-11.83949617c1.5470054-.89316397 3.4529946-.89316397 5 0z"/><path id="E" d="m28.0066089.85693653 20.5066089 11.83949617c1.5470054.893164 2.5 2.5437991 2.5 4.330127v23.6789923c0 1.786328-.9529946 3.4369631-2.5 4.3301271l-20.5066089 11.8394961c-1.5470054.893164-3.4529946.893164-5 0l-20.5066089-11.8394961c-1.54700538-.893164-2.5-2.5437991-2.5-4.3301271v-23.6789923c0-1.7863279.95299462-3.436963 2.5-4.330127l20.5066089-11.83949617c1.5470054-.89316397 3.4529946-.89316397 5 0z"/><path id="F" d="m28.0066089.85693653 20.5066089 11.83949617c1.5470054.893164 2.5 2.5437991 2.5 4.330127v23.6789923c0 1.786328-.9529946 3.4369631-2.5 4.3301271l-20.5066089 11.8394961c-1.5470054.893164-3.4529946.893164-5 0l-20.5066089-11.8394961c-1.54700538-.893164-2.5-2.5437991-2.5-4.3301271v-23.6789923c0-1.7863279.95299462-3.436963 2.5-4.330127l20.5066089-11.83949617c1.5470054-.89316397 3.4529946-.89316397 5 0z"/><path id="G" d="m0 3.99719986c0-2.20759253 1.78378113-3.99719986 4.00206524-3.99719986h346.99586976c2.210279 0 4.002065 1.79741469 4.002065 3.99719986v232.00280014h-355z"/><filter id="H" height="189.4%" width="159.4%" x="-29.7%" y="-35.4%"><feOffset dx="0" dy="22" in="SourceAlpha" result="shadowOffsetOuter1"/><feGaussianBlur in="shadowOffsetOuter1" result="shadowBlurOuter1" stdDeviation="31.5"/><feColorMatrix in="shadowBlurOuter1" type="matrix" values="0 0 0 0 0   0 0 0 0 0   0 0 0 0 0  0 0 0 0.150758605 0"/></filter><mask id="I" fill="#fff"><use fill="none" xlink:href="#a"/></mask><mask id="J" fill="#fff"><use fill="none" xlink:href="#b"/></mask><mask id="K" fill="#fff"><use fill="none" xlink:href="#c"/></mask><mask id="L" fill="#fff"><use fill="none" xlink:href="#d"/></mask><mask id="M" fill="#fff"><use fill="none" xlink:href="#e"/></mask><mask id="N" fill="#fff"><use fill="none" xlink:href="#f"/></mask><mask id="O" fill="#fff"><use fill="none" xlink:href="#g"/></mask><mask id="P" fill="#fff"><use fill="none" xlink:href="#h"/></mask><mask id="Q" fill="#fff"><use fill="none" xlink:href="#i"/></mask><mask id="R" fill="#fff"><use fill="none" xlink:href="#j"/></mask><mask id="S" fill="#fff"><use fill="none" xlink:href="#k"/></mask><mask id="T" fill="#fff"><use fill="none" xlink:href="#l"/></mask><mask id="U" fill="#fff"><use fill="none" xlink:href="#m"/></mask><mask id="V" fill="#fff"><use fill="none" xlink:href="#n"/></mask><mask id="W" fill="#fff"><use fill="none" xlink:href="#o"/></mask><mask id="X" fill="#fff"><use fill="none" xlink:href="#p"/></mask><mask id="Y" fill="#fff"><use fill="none" xlink:href="#q"/></mask><mask id="Z" fill="#fff"><use fill="none" xlink:href="#r"/></mask><mask id="aa" fill="#fff"><use fill="none" xlink:href="#s"/></mask><mask id="ab" fill="#fff"><use fill="none" xlink:href="#t"/></mask><mask id="ac" fill="#fff"><use fill="none" xlink:href="#u"/></mask><mask id="ad" fill="#fff"><use fill="none" xlink:href="#v"/></mask><mask id="ae" fill="#fff"><use fill="none" xlink:href="#w"/></mask><mask id="af" fill="#fff"><use fill="none" xlink:href="#x"/></mask><mask id="ag" fill="#fff"><use fill="none" xlink:href="#y"/></mask><mask id="ah" fill="#fff"><use fill="none" xlink:href="#z"/></mask><mask id="ai" fill="#fff"><use fill="none" xlink:href="#A"/></mask><mask id="aj" fill="#fff"><use fill="none" xlink:href="#B"/></mask><mask id="ak" fill="#fff"><path d="m16 0h-8v2h8c3.309 0 6 2.691 6 6s-2.691 6-6 6h-8v-6l-8 7 8 7v-6h8c4.411 0 8-3.589 8-8s-3.589-8-8-8z" fill="none"/></mask><mask id="al" fill="#fff"><use fill="none" xlink:href="#C"/></mask><mask id="am" fill="#fff"><use fill="none" xlink:href="#D"/></mask><mask id="an" fill="#fff"><use fill="none" xlink:href="#E"/></mask><mask id="ao" fill="#fff"><use fill="none" xlink:href="#F"/></mask></defs><g fill="none" fill-rule="evenodd"><g opacity=".145437"><path d="m-225-104h375v247h-375z" fill="#fafafa"/><g transform="translate(-198 -103)"><g fill-rule="evenodd" transform="translate(0 1)"><use fill="#424343" xlink:href="#a"/><g fill="#e0e0e0" mask="url(#I)"><path d="m0 0h52v60h-52z" transform="translate(0 -1)"/></g></g><text fill="#000" font-family="SFUIDisplay-Regular, SF UI Display" font-size="22" letter-spacing="-.53058821"><tspan x="16.103185" y="38">W</tspan></text></g><g transform="translate(-198 -11)"><g fill-rule="evenodd" transform="translate(0 1)"><use fill="#424343" xlink:href="#b"/><g fill="#e0e0e0" mask="url(#J)"><path d="m0 0h52v60h-52z" transform="translate(0 -1)"/></g></g><text/></g><g transform="translate(-198 81)"><g fill-rule="evenodd" transform="translate(0 1)"><use fill="#424343" xlink:href="#c"/><g fill="#e0e0e0" mask="url(#K)"><path d="m0 0h52v60h-52z" transform="translate(0 -1)"/></g></g><text fill="#000" font-family="SFUIDisplay-Regular, SF UI Display" font-size="22" letter-spacing="-.53058821"><tspan x="19.282872" y="38">X</tspan></text></g><g transform="translate(-225 -57)"><g fill-rule="evenodd" transform="translate(0 1)"><use fill="#424343" xlink:href="#d"/><g fill="#e0e0e0" mask="url(#L)"><path d="m0 0h52v60h-52z" transform="translate(0 -1)"/></g></g><text fill="#000" font-family="SFUIDisplay-Regular, SF UI Display" font-size="22" letter-spacing="-.53058821"><tspan x="18.219396" y="38">Q</tspan></text></g><g transform="translate(-225 35)"><g fill-rule="evenodd" transform="translate(0 1)"><use fill="#424343" xlink:href="#e"/><g fill="#e0e0e0" mask="url(#M)"><path d="m0 0h52v60h-52z" transform="translate(0 -1)"/></g></g><text fill="#000" font-family="SFUIDisplay-Regular, SF UI Display" font-size="22" letter-spacing="-.53058821"><tspan x="19.529943" y="38">Y</tspan></text></g><g transform="translate(-144 -103)"><g fill-rule="evenodd" transform="translate(0 1)"><use fill="#424343" xlink:href="#f"/><g fill="#e0e0e0" mask="url(#N)"><path d="m0 0h52v60h-52z" transform="translate(0 -1)"/></g></g><text fill="#000" font-family="SFUIDisplay-Regular, SF UI Display" font-size="22" letter-spacing="-.53058821"><tspan x="20.190587" y="38">E</tspan></text></g><g transform="translate(-144 -11)"><g fill-rule="evenodd" transform="translate(0 1)"><use fill="#424343" xlink:href="#g"/><g fill="#b7b6b6" mask="url(#O)"><path d="m0 0h52v60h-52z" transform="translate(0 -1)"/></g></g><text/></g><g transform="translate(-144 81)"><g fill-rule="evenodd" transform="translate(0 1)"><use fill="#424343" xlink:href="#h"/><g fill="#e0e0e0" mask="url(#P)"><path d="m0 0h52v60h-52z" transform="translate(0 -1)"/></g></g><text fill="#000" font-family="SFUIDisplay-Regular, SF UI Display" font-size="22" letter-spacing="-.53058821"><tspan x="18.718907" y="38">C</tspan></text></g><g transform="translate(-171 -57)"><g fill-rule="evenodd" transform="translate(0 1)"><use fill="#424343" xlink:href="#i"/><g fill="#e0e0e0" mask="url(#Q)"><path d="m0 0h52v60h-52z" transform="translate(0 -1)"/></g></g><text fill="#000" font-family="SFUIDisplay-Regular, SF UI Display" font-size="22" letter-spacing="-.53058821"><tspan x="19.325841" y="38">A</tspan></text></g><g transform="translate(-171 35)"><g fill-rule="evenodd" transform="translate(0 1)"><use fill="#424343" xlink:href="#j"/><g fill="#e0e0e0" mask="url(#R)"><path d="m0 0h52v60h-52z" transform="translate(0 -1)"/></g></g><text fill="#000" font-family="SFUIDisplay-Regular, SF UI Display" font-size="22" letter-spacing="-.53058821"><tspan x="19.734044" y="38">S</tspan></text></g><g transform="translate(-90 -103)"><g fill-rule="evenodd" transform="translate(0 1)"><use fill="#424343" xlink:href="#k"/><g fill="#e0e0e0" mask="url(#S)"><path d="m0 0h52v60h-52z" transform="translate(0 -1)"/></g></g><text fill="#000" font-family="SFUIDisplay-Regular, SF UI Display" font-size="22" letter-spacing="-.53058821"><tspan x="19.766271" y="38">T</tspan></text></g><g transform="translate(-90 -11)"><g fill-rule="evenodd" transform="translate(0 1)"><use fill="#424343" xlink:href="#l"/><g fill="#e0e0e0" mask="url(#T)"><path d="m0 0h52v60h-52z" transform="translate(0 -1)"/></g></g><text fill="#000" font-family="SFUIDisplay-Regular, SF UI Display" font-size="22" letter-spacing="-.53058821"><tspan x="20.459142" y="38">F</tspan></text></g><g transform="translate(-90 81)"><g fill-rule="evenodd" transform="translate(0 1)"><use fill="#424343" xlink:href="#m"/><g fill="#e0e0e0" mask="url(#U)"><path d="m0 0h52v60h-52z" transform="translate(0 -1)"/></g></g><text fill="#000" font-family="SFUIDisplay-Regular, SF UI Display" font-size="22" letter-spacing="-.53058821"><tspan x="19.325841" y="38">V</tspan></text></g><g transform="translate(-117 -57)"><g fill-rule="evenodd" transform="translate(0 1)"><use fill="#424343" xlink:href="#n"/><g fill="#e0e0e0" mask="url(#V)"><path d="m0 0h52v60h-52z" transform="translate(0 -1)"/></g></g><text fill="#000" font-family="SFUIDisplay-Regular, SF UI Display" font-size="22" letter-spacing="-.53058821"><tspan x="19.621251" y="38">R</tspan></text></g><g transform="translate(-117 35)"><g fill-rule="evenodd" transform="translate(0 1)"><use fill="#424343" xlink:href="#o"/><g fill="#e0e0e0" mask="url(#W)"><path d="m0 0h52v60h-52z" transform="translate(0 -1)"/></g></g><text fill="#000" font-family="SFUIDisplay-Regular, SF UI Display" font-size="22" letter-spacing="-.53058821"><tspan x="18.751134" y="38">D</tspan></text></g><g transform="translate(-36 -103)"><g fill-rule="evenodd" transform="translate(0 1)"><use fill="#424343" xlink:href="#p"/><g fill="#e0e0e0" mask="url(#X)"><path d="m0 0h52v60h-52z" transform="translate(0 -1)"/></g></g><text fill="#000" font-family="SFUIDisplay-Regular, SF UI Display" font-size="22" letter-spacing="-.53058821"><tspan x="19.481603" y="38">Z</tspan></text></g><g transform="translate(-36 -11)"><g fill-rule="evenodd" transform="translate(0 1)"><use fill="#424343" xlink:href="#q"/><g fill="#e0e0e0" mask="url(#Y)"><path d="m0 0h52v60h-52z" transform="translate(0 -1)"/></g></g><text fill="#000" font-family="SFUIDisplay-Regular, SF UI Display" font-size="22" letter-spacing="-.53058821"><tspan x="18.573888" y="38">H</tspan></text></g><g transform="translate(-36 81)"><g fill-rule="evenodd" transform="translate(0 1)"><use fill="#424343" xlink:href="#r"/><g fill="#e0e0e0" mask="url(#Z)"><path d="m0 0h52v60h-52z" transform="translate(0 -1)"/></g></g><text fill="#000" font-family="SFUIDisplay-Regular, SF UI Display" font-size="22" letter-spacing="-.53058821"><tspan x="19.5192" y="38">B</tspan></text></g><g transform="translate(-63 -57)"><g fill-rule="evenodd" transform="translate(0 1)"><use fill="#424343" xlink:href="#s"/><g fill="#e0e0e0" mask="url(#aa)"><path d="m0 0h52v60h-52z" transform="translate(0 -1)"/></g></g><text fill="#000" font-family="SFUIDisplay-Regular, SF UI Display" font-size="22" letter-spacing="-.53058821"><tspan x="18.493321" y="38">G</tspan></text></g><g transform="translate(-63 35)"><g fill-rule="evenodd" transform="translate(0 1)"><use fill="#424343" xlink:href="#t"/><g fill="#e0e0e0" mask="url(#ab)"><path d="m0 0h52v60h-52z" transform="translate(0 -1)"/></g></g><text fill="#000" font-family="SFUIDisplay-Regular, SF UI Display" font-size="22" letter-spacing="-.53058821"><tspan x="18.573888" y="38">N</tspan></text></g><g transform="translate(18 -103)"><g fill-rule="evenodd" transform="translate(0 1)"><use fill="#424343" xlink:href="#u"/><g fill="#e0e0e0" mask="url(#ac)"><path d="m0 0h52v60h-52z" transform="translate(0 -1)"/></g></g><text fill="#000" font-family="SFUIDisplay-Regular, SF UI Display" font-size="22" letter-spacing="-.53058821"><tspan x="23.794591" y="38">I</tspan></text></g><g transform="translate(18 -11)"><g fill-rule="evenodd" transform="translate(0 1)"><use fill="#424343" xlink:href="#v"/><g fill="#b7b6b6" mask="url(#ad)"><path d="m0 0h52v60h-52z" transform="translate(0 -1)"/></g></g><text/></g><g transform="translate(18 81)"><g fill-rule="evenodd" transform="translate(0 1)"><use fill="#424343" xlink:href="#w"/><g fill="#e0e0e0" mask="url(#ae)"><path d="m0 0h52v60h-52z" transform="translate(0 -1)"/></g></g><text/></g><g transform="translate(-9 -57)"><g fill-rule="evenodd" transform="translate(0 1)"><use fill="#424343" xlink:href="#x"/><g fill="#e0e0e0" mask="url(#af)"><path d="m0 0h52v60h-52z" transform="translate(0 -1)"/></g></g><text fill="#000" font-family="SFUIDisplay-Regular, SF UI Display" font-size="22" letter-spacing="-.53058821"><tspan x="18.606114" y="38">U</tspan></text></g><g transform="translate(-9 35)"><g fill-rule="evenodd" transform="translate(0 1)"><use fill="#424343" xlink:href="#y"/><g fill="#e0e0e0" mask="url(#ag)"><path d="m0 0h52v60h-52z" transform="translate(0 -1)"/></g></g><text fill="#000" font-family="SFUIDisplay-Regular, SF UI Display" font-size="22" letter-spacing="-.53058821"><tspan x="17.123693" y="38">M</tspan></text></g><g transform="translate(72 -103)"><g fill-rule="evenodd" transform="translate(0 1)"><use fill="#424343" xlink:href="#z"/><g fill="#e0e0e0" mask="url(#ah)"><path d="m0 0h52v60h-52z" transform="translate(0 -1)"/></g></g><text fill="#000" font-family="SFUIDisplay-Regular, SF UI Display" font-size="22" letter-spacing="-.53058821"><tspan x="18.219396" y="38">O</tspan></text></g><g transform="translate(72 -11)"><g fill-rule="evenodd" transform="translate(0 1)"><use fill="#424343" xlink:href="#A"/><g fill="#e0e0e0" mask="url(#ai)"><path d="m0 0h52v60h-52z" transform="translate(0 -1)"/></g></g><text/></g><g transform="translate(72 81)"><g fill-rule="evenodd" transform="translate(0 1)"><use fill="#424343" xlink:href="#B"/><g fill="#3C61E2" mask="url(#aj)"><path d="m0 0h52v60h-52z" transform="translate(0 -1)"/></g></g><text/><g fill="#fff" fill-rule="evenodd" mask="url(#ak)" transform="translate(14 20)"><path d="m0 0h24v24h-24z" transform="translate(0 -1)"/></g></g><g transform="translate(45 -57)"><g fill-rule="evenodd" transform="translate(0 1)"><use fill="#424343" xlink:href="#C"/><g fill="#e0e0e0" mask="url(#al)"><path d="m0 0h52v60h-52z" transform="translate(0 -1)"/></g></g><text fill="#000" font-family="SFUIDisplay-Regular, SF UI Display" font-size="22" letter-spacing="-.53058821"><tspan x="20.496739" y="38">L</tspan></text></g><g transform="translate(45 35)"><g fill-rule="evenodd" transform="translate(0 1)"><use fill="#424343" xlink:href="#D"/><g fill="#e0e0e0" mask="url(#am)"><path d="m0 0h52v60h-52z" transform="translate(0 -1)"/></g></g><text fill="#000" font-family="SFUIDisplay-Regular, SF UI Display" font-size="22" letter-spacing="-.53058821"><tspan x="20.819005" y="38">J</tspan></text></g><g transform="translate(99 -57)"><g fill-rule="evenodd" transform="translate(0 1)"><use fill="#424343" xlink:href="#E"/><g fill="#e0e0e0" mask="url(#an)"><path d="m0 0h52v60h-52z" transform="translate(0 -1)"/></g></g><text fill="#000" font-family="SFUIDisplay-Regular, SF UI Display" font-size="22" letter-spacing="-.53058821"><tspan x="19.750157" y="38">P</tspan></text></g><g transform="translate(99 35)"><g fill-rule="evenodd" transform="translate(0 1)"><use fill="#424343" xlink:href="#F"/><g fill="#e0e0e0" mask="url(#ao)"><path d="m0 0h52v60h-52z" transform="translate(0 -1)"/></g></g><text fill="#000" font-family="SFUIDisplay-Regular, SF UI Display" font-size="22" letter-spacing="-.53058821"><tspan x="19.497716" y="38">K</tspan></text></g></g><g transform="translate(-215 -93)"><use fill="#000" filter="url(#H)" xlink:href="#G"/><use fill="#fff" fill-rule="evenodd" xlink:href="#G"/></g><g transform="translate(-132 -8)"><path d="m23.7533937 0 23.0701357 13.3443894v26.6887789l-23.0701357 13.3443895-23.07013578-13.3443895v-26.6887789z" fill="#f2f2f2" transform="translate(133 60)"/><text fill="#3C61E2" font-family="SFUIText-Regular, SF UI Text" font-size="28"><tspan x="148.775391" y="94">a</tspan></text><text fill="#000" font-family="SFUIText-Regular, SF UI Text" font-size="28" opacity=".261039" transform="matrix(.97437006 .22495105 -.22495105 .97437006 8.657123 -34.579941)"><tspan x="146.64709" y="30.701326">A</tspan></text><g transform="matrix(.97029573 -.2419219 .2419219 .97029573 162.823546 14.721255)"><g transform="matrix(.97437006 .22495105 -.22495105 .97437006 28.947762 .807501)"><ellipse cx="14.871658" cy="78.899393" rx="14.871658" ry="14.899393" stroke="#ffba08" stroke-opacity=".972458" stroke-width="1.65"/><g fill="#ffba08"><path d="m14 4h2v60h-2z" transform="matrix(1 0 0 -1 0 68)"/><path d="m9.11777065 5.78342246 11.56684495-7.90119311v15.80238625z" transform="matrix(0 1 -1 0 20.684615 -9.117771)"/></g></g><g fill-rule="nonzero"><path d="m0 617.393863v-523.2170299c0-12.8002338 10.5763243-23.1768331 23.6229325-23.1768331 13.0466081 0 23.6229324 10.3765993 23.6229324 23.1768331v523.2170299c0 12.800233-10.5763243 23.176833-23.6229324 23.176833-13.0466082 0-23.6229325-10.3766-23.6229325-23.176833z" fill="#fdc794"/><path d="m6.74940928 110.731714v-16.5548809c0-9.1283612 7.56946252-16.5548808 16.87352322-16.5548808s16.8735232 7.4265196 16.8735232 16.5548808v16.5548809z" fill="#ffe9ec"/><path d="m40.4964557 127.286595h-33.74704642c-.93141848 0-1.68735232-.740003-1.68735232-1.655488s.75593384-1.655488 1.68735232-1.655488h33.74704642c.9314184 0 1.6873523.740003 1.6873523 1.655488s-.7559339 1.655488-1.6873523 1.655488" fill="#f9a671"/><path d="m40.4964557 133.908547h-33.74704642c-.93141848 0-1.68735232-.740003-1.68735232-1.655488s.75593384-1.655488 1.68735232-1.655488h33.74704642c.9314184 0 1.6873523.740003 1.6873523 1.655488s-.7559339 1.655488-1.6873523 1.655488" fill="#f9a671"/><path d="m23.6229325 100.798785c-9.3192469 0-16.87352322 4.446641-16.87352322 9.932929h33.74704642c0-5.486288-7.5542764-9.932929-16.8735232-9.932929" fill="#fff"/></g></g></g></g></svg>