<svg height="117" viewBox="0 0 127 117" width="127" xmlns="http://www.w3.org/2000/svg"><g fill="none"><g transform="translate(34.758621 27.606147)"><path d="m61.7931034 30.9056604c0 17.0684502-13.8331319 30.9056604-30.8965517 30.9056604-17.0634197 0-30.8965517-13.8372102-30.8965517-30.9056604 0-17.0684503 13.833132-30.9056604 30.8965517-30.9056604 17.0634198 0 30.8965517 13.8372101 30.8965517 30.9056604" fill="#029adf"/><path d="m30.7953054 0c-4.3117365 0-8.4159105.88183089-12.1477558 2.47298384-.1690458 1.01790929-1.0174843 2.75478399-.9918064 3.30766946.1198299.02357264 7.8884449-7.92897765 6.9244562-2.56084548-.6216176 3.45553418-6.9715323 3.43517599-6.6987053 6.91428278 6.6719576 2.6197771 8.9990114-4.97489771 14.6652537-4.9427532 1.8905306.00964335 6.7318724-2.98300997 7.6562745-2.37333588 3.7404047 2.46762642-.8559278 11.21521748-3.7168666 8.30399688-2.751808-2.75692697-6.6794469.9654066-6.5029118 5.2631268 1.4315393.0632175 2.0413879-4.0684227 3.3284894-2.6894235 1.4165606 1.518292.9051437 4.5752344-1.0549311 5.277056-1.9718437.7061077-9.7115712-5.2395541-7.8103415-.7328946 2.0906037 5.0016848-6.263252 8.8665256 2.169777 6.8499938 3.9757849-.9536203 2.6555162 2.0754634 4.5299981 3.5208946 2.2339717 1.717588 1.2443051-2.3722644 2.8737778-1.7497325 2.3698502.9182614-.4065658 3.2840969 3.3038814 1.5665089 4.353463-1.9886734 2.7186408 1.1121998 4.0506785 3.1394465 2.4993093 3.7844796 8.6416615 7.4168086 11.8610201 2.4151237.7596359-1.1786318.272827-10.5080383 5.0510442-4.2505749 3.0342642 3.9762752 1.992172-4.696312 2.4030174-6.9732144-3.6312739-13.12245798-15.6356619-22.7583088-29.8943498-22.7583088" fill="#26c855"/><path d="m35.1697846 44.9782809-5.6802708-4.2383983-3.8077358.1491053-3.948999-1.2383144-3.0929224-2.1223716-7.0132439 1.612664-2.89111765 1.3958797-3.21825367 4.3155946 1.13860328 5.0590064c.32607389.4177064.66170694.8269529 1.0079613 1.2266821l5.95748674 2.7695522 4.0201618.5403746 2.3919166 4.8876938.0711627.4917303c3.3903187 1.2784989 7.063164 1.9838412 10.9038258 1.9838412 2.648952 0 5.2193065-.3331077 7.6728266-.9601961l.8082809-4.80521 3.6739074-2.9683593 1.5262807-4.7396459-7.6707024-.0306671z" fill="#fac176"/><path d="m.41967707 35.8726415c.15444117-.0126076.17458567-.0252152.18913447-.0378227 1.45040396-1.361619 2.66019307-1.5896062 3.86886304-3.6330853 1.20978911-2.0434791-.24173399-2.0434791 0-5.4485773.241734-3.4061487-.24173399-1.8165426 0-5.4496278.08729283-1.3069862-.05931436-2.0256184-1.75033318-2.5393775-1.75033317 3.7434017-2.7273414 7.8765877-2.7273414 12.226204 0 1.6620997.14660719 3.2916298.41967707 4.8822866" fill="#26c855"/><path d="m31.9748783 56.4351653c-1.1461449-.0892442-5.3793668-1.433283-6.3498329-3.2256932-.9704661-1.7924103-3.0870771-4.8385399-3.1749164-4.3009244-.0603234.3655786-9.6422212-2.9493589-16.22488126-5.3094911l-.70800636.9687832 1.13450347 5.1439055c.32489978.4247163.65932431.8408307 1.00433189 1.2472681l5.93603546 2.8160302 4.0056862.5494431 2.3833039 4.9697181.0709065.4999824c3.3781111 1.2999544 7.0377314 2.0171336 10.864564 2.0171336 2.6394138 0 5.2005131-.3386978 7.6451987-.9763099l.6106423-3.7041711c-.5386775-.1709617-1.1599028-.3967602-1.9060082-.6956745-2.91034-1.1644752-4.1453825.0892442-5.2915273 0" fill="#ffd465"/><path d="m43.1570712 53.2262042 1.532584-4.7849563-7.702381-.0309603-1.856805-3.3607859-5.7037293-4.2789168-3.8234611.1505308-3.9653078-1.2501526-3.1056955-2.1426612-7.0422074 1.6280809-2.90305751 1.409224-2.51804507 3.394949c6.63373158 2.3433688 16.28997058 5.6347612 16.35076198 5.2717792.0885209-.533797 2.2215535 2.4906968 3.199549 4.2703761.9779955 1.7796792 5.2440609 3.1141717 6.3990981 3.202782 1.1550371.0886103 2.3996617-1.1562043 5.3325816 0 .7518941.2967911 1.3779392.5209859 1.920796.6907333l.196239-1.1732858z" fill="#26c855"/><path d="m46.0397971 3.86320755c-.1958911 3.68835395-.3551872 6.61426295-.3551872 6.61426295l-4.3052996 4.2714001s4.0362184 5.7396938 4.3052996 6.4071001 3.6325965 1.4682938 4.3052996 1.06785c.672703-.4004437 3.2289746-2.5361438 4.3052995-1.06785s.4036218 2.669625 2.1526498 3.20355c1.4777941.4517006 3.5163534.8991298 4.1169427 1.0272718.0086106-1.1863814.0118396-2.2862669.1248537-2.9066878-2.2226109-7.9586862-7.5751746-14.61352745-14.6498581-18.61689715" fill="#ffd465"/></g><g transform="matrix(.93358043 -.35836795 .35836795 .93358043 99.309762 11.224046)"><path d="m14.2289592 3.55828852h-14.2289592v-2.96524043c0-.32765907.2653108-.59304809.5928733-.59304809h13.0432126c.3275625 0 .5928733.26538902.5928733.59304809z" fill="#000"/><path d="m0 3.558289h14.228959v3.558289h-14.228959z" fill="#e00"/><path d="m14.2289592 10.0818175c0 .327659-.2653108.593048-.5928733.593048h-13.0432126c-.3275625 0-.5928733-.265389-.5928733-.593048v-2.96524047h14.2289592z" fill="#fdcf00"/></g><g transform="matrix(.97437006 -.22495105 .22495105 .97437006 59.585877 2.990909)"><path d="m13.2413793.55188679c0-.30491745-.2468965-.55188679-.5517241-.55188679h-7.17241382v5.51886792h-5.51724138v3.86320755c0 .30491745.24689655.55188679.55172414.55188679h12.13793106c.3048276 0 .5517241-.24696934.5517241-.55188679z" fill="#b41f30"/><g fill="#e6e6e6"><path d="m5.517241 1.103774h7.724138v1.103774h-7.724138z"/><path d="m5.517241 3.311321h7.724138v1.103774h-7.724138z"/><path d="m0 5.51886792v1.10377359h13.2413793v-1.10377359h-7.72413792z"/><path d="m0 7.726415h13.241379v1.103774h-13.241379z"/></g><path d="m5.51724138 5.51886792h-5.51724138v-4.96698113c0-.30491745.24689655-.55188679.55172414-.55188679h4.96551724z" fill="#00256a"/><g fill="#fff"><path d="m2.75862069 2.18602358-.17462069.37749057h-.41489655l.30344827.31457547-.112.45475472.39806897-.2257217.39806897.2257217-.112-.45475472.30344827-.31457547h-.41544827z"/><path d="m1.40882759.83583255-.17434483.37749056h-.41489655l.30317241.31457547-.112.45475472.39806897-.2257217.39834482.2257217-.11227586-.45475472.30344828-.31457547h-.41544828z"/><path d="m4.10841379.83583255.17434483.37749056h.41489655l-.30317241.31457547.112.45475472-.39806897-.2257217-.39834482.2257217.11227586-.45475472-.30344828-.31457547h.41544828z"/><path d="m1.40882759 4.68303538-.17434483-.37749057h-.41489655l.30317241-.31457547-.112-.45475472.39806897.2257217.39834482-.2257217-.11227586.45475472.30344828.31457547h-.41544828z"/><path d="m4.10841379 4.68303538.17434483-.37749057h.41489655l-.30317241-.31457547.112-.45475472-.39806897.2257217-.39834482-.2257217.11227586.45475472-.30344828.31457547h.41544828z"/></g></g><g transform="matrix(.93358043 .35836795 -.35836795 .93358043 112.134443 35.333436)"><path d="m15.4570385 0h-14.78499335c-.37096892 0-.67204515.30707018-.67204515.68542452v10.96679228c0 .3783543.30107623.6854245.67204515.6854245h14.78499335c.3709689 0 .6720451-.3070702.6720451-.6854245v-10.96679228c0-.37835434-.3010762-.68542452-.6720451-.68542452z" fill="#002781"/><path d="m16.1290836.68542452c0-.37835434-.3010762-.68542452-.6720451-.68542452h-1.7342125l-4.31419388 3.38462627v-3.38462627h-2.68818061v3.38462627l-4.31419385-3.38462627h-1.73421251c-.37096892 0-.67204515.30707018-.67204515.68542452v.8862539l4.1125803 3.22629321h-4.1125803v2.74169807h4.1125803l-4.1125803 3.2266359v.8859112c0 .3783543.30107623.6854245.67204515.6854245h1.73421251l4.31419385-3.38462624v3.38462624h2.68818061v-3.38462624l4.31419388 3.38462624h1.7342125c.3709689 0 .6720451-.3070702.6720451-.6854245v-.8859112l-4.1125803-3.2266359h4.1125803v-2.74169807h-4.1125803l4.1125803-3.22629321z" fill="#e6e6e6"/><g fill="#d10d24"><path d="m16.1290836 5.48339615h-7.39249663v-5.48339615h-1.34409031v5.48339615h-7.39249666v1.37084903h7.39249666v5.48339612h1.34409031v-5.48339612h7.39249663z"/><path d="m15.7761716 0-6.28847535 4.74524667h1.15871015l5.4826772-4.13705943v-.02148581c0-.25367126-.1458985-.46575707-.352912-.58670143z"/><path d="m10.6464064 7.59239467h-1.15871015l6.28847535 4.74524663c.2070135-.1209443.352912-.3330301.352912-.5867014v-.0214858z"/><path d="m5.48267724 7.59239467-5.48267724 4.13705943v.0214858c0 .2536713.14589856.4657571.35291202.5867014l6.28847536-4.74524663z"/><path d="m5.48267724 4.74524667h1.15871014l-6.28847536-4.74524667c-.20701346.12094436-.35291202.33303017-.35291202.58670143v.02148581z"/></g></g><g transform="matrix(.93358043 .35836795 -.35836795 .93358043 27.012701 1.668459)"><path d="m6.09064743 13.7079968h-5.3293165c-.42063534 0-.76133093-.340796-.76133093-.7615554v-12.18488602c0-.42075935.34069559-.76155538.76133093-.76155538h5.3293165z" fill="#01209f"/><path d="m18.2719423 12.9464414c0 .4207594-.3406956.7615554-.7613309.7615554h-5.3293165v-13.7079968h5.3293165c.4206353 0 .7613309.34079603.7613309.76155538z" fill="#ef4234"/><path d="m6.090647 0h6.090647v13.707997h-6.090647z" fill="#e6e6e6"/></g><g transform="matrix(.96592583 -.25881905 .25881905 .96592583 107.03402 72.035598)"><path d="m5.20555528 11.7159523h-4.55486087c-.35950866 0-.65069441-.2912715-.65069441-.6508862v-10.41417986c0-.35961465.29118575-.65088624.65069441-.65088624h4.55486087z" fill="#009345"/><path d="m15.6166658 11.0650661c0 .3596147-.2911857.6508862-.6506944.6508862h-4.5548608v-11.7159523h4.5548608c.3595087 0 .6506944.29127159.6506944.65088624z" fill="#cf2b36"/><path d="m5.205555 0h5.205555v11.715952h-5.205555z" fill="#e6e6e6"/></g><g transform="matrix(.96592583 .25881905 -.25881905 .96592583 10.723311 73.965226)"><path d="m15.4482759 10.9457547c0 .355737-.288046.6438679-.6436782.6438679h-14.16091954c-.35563218 0-.64367816-.2881309-.64367816-.6438679v-10.30188677c0-.35573703.28804598-.64386793.64367816-.64386793h14.16091954c.3556322 0 .6436782.2881309.6436782.64386793z" fill="#0a5189"/><path d="m15.4482759 4.50707547h-9.01149429v-4.50707547h-2.57471264v4.50707547h-3.86206897v2.5754717h3.86206897v4.50707543h2.57471264v-4.50707543h9.01149429z" fill="#efd358"/></g><g transform="matrix(.99254615 -.12186934 .12186934 .99254615 39.172166 103.293528)"><path d="m18.2109052 12.9031941c0 .4193538-.3395575.7590114-.7587877.7590114h-16.69332978c-.41923022 0-.75878772-.3396576-.75878772-.7590114v-12.14418268c0-.41935381.3395575-.75901142.75878772-.75901142h16.69332978c.4192302 0 .7587877.33965761.7587877.75901142z" fill="#da1e05"/><g fill="#fff"><path d="m13.278785 8.34912558h-8.34666484c-.20942541 0-.37939386-.17001856-.37939386-.37950571v-2.27703425c0-.20948715.16996845-.37950571.37939386-.37950571h8.34666484c.2094255 0 .3793939.17001856.3793939.37950571v2.27703425c0 .20948715-.1699684.37950571-.3793939.37950571z"/><path d="m10.2436342 11.3851712h-2.27636317c-.20942541 0-.37939386-.1700185-.37939386-.3795057v-8.34912554c0-.20948715.16996845-.37950571.37939386-.37950571h2.27636317c.2094254 0 .3793938.17001856.3793938.37950571v8.34912554c0 .2094872-.1699684.3795057-.3793938.3795057z"/></g></g><g transform="matrix(.93358043 .35836795 -.35836795 .93358043 87.660831 97.144728)"><path d="m16 11.4669811c0 .3726769-.2983333.6745283-.6666667.6745283h-14.66666663c-.36833334 0-.66666667-.3018514-.66666667-.6745283v-3.37264148h16z" fill="#e00"/><path d="m0 4.04717h16v4.04717h-16z" fill="#0000fe"/><path d="m16 4.04716981h-16v-3.37264151c0-.37267688.29833333-.6745283.66666667-.6745283h14.66666663c.3683334 0 .6666667.30185142.6666667.6745283z" fill="#e6e6e6"/></g><g transform="matrix(.93969262 -.34202014 .34202014 .93969262 -.000668 42.112492)"><path d="m18.2068966 12.509434c0 .4065566-.3394828.735849-.7586207.735849h-16.68965521c-.41913793 0-.75862069-.3292924-.75862069-.735849v-3.67924532h18.2068966z" fill="#21468c"/><path d="m0 4.415094h18.206897v4.415094h-18.206897z" fill="#e6e6e6"/><path d="m18.2068966 4.41509434h-18.2068966v-3.67924528c0-.40655661.33948276-.73584906.75862069-.73584906h16.68965521c.4191379 0 .7586207.32929245.7586207.73584906z" fill="#ae1c27"/></g></g></svg>