<svg height="101" viewBox="0 0 116 101" width="116" xmlns="http://www.w3.org/2000/svg"><g fill="none" fill-rule="evenodd"><ellipse cx="62" cy="97.985075" fill="#f1f1f1" rx="48" ry="3.014925"/><g fill-rule="nonzero" transform="translate(28 28.139303)"><path d="m45.1923077 0c-6.3328462 0-9.9223846 5.23868408-11.6923077 9.00558209-1.7699231-3.76689801-5.3594615-9.00558209-11.6923077-9.00558209-4.0294615 0-7.3076923 3.26853085-7.3076923 7.28606965 0 4.01753885 3.2782308 7.28606965 7.3076923 7.28606965h11.6923077 11.6923077c4.0294615 0 7.3076923-3.2685308 7.3076923-7.28606965 0-4.0175388-3.2782308-7.28606965-7.3076923-7.28606965zm-23.3846154 11.6577114c-2.4173846 0-4.3846154-1.96140991-4.3846154-4.37164175s1.9672308-4.37164179 4.3846154-4.37164179c5.4734615 0 8.4564615 5.71810746 9.6505385 8.74328354zm23.3846154 0h-9.6549231c1.1867692-3.02371886 4.1595385-8.74328354 9.6549231-8.74328354 2.4173846 0 4.3846154 1.96140995 4.3846154 4.37164179s-1.9672308 4.37164175-4.3846154 4.37164175z" fill="#ffd465"/><path d="m61.5 23.1144279h-55.5v43.8106343c0 1.6136917 1.30717105 2.9207089 2.92105263 2.9207089h49.65789477c1.6138815 0 2.9210526-1.3070172 2.9210526-2.9207089z" fill="#8AA0EE"/><path d="m64.0869565 14.0696517h-61.17391302c-1.60945652 0-2.91304348 1.3042065-2.91304348 2.9144279v8.7432836c0 1.6102214 1.30358696 2.9144278 2.91304348 2.9144278h61.17391302c1.6094565 0 2.9130435-1.3042064 2.9130435-2.9144278v-8.7432836c0-1.6102214-1.303587-2.9144279-2.9130435-2.9144279z" fill="#3C61E2"/><path d="m26 14.069652h14.5v14.572139h-14.5z" fill="#ffd465"/><path d="m26 28.641791h14.5v41.20398h-14.5z" fill="#deb345"/></g><g fill="#ffba08" fill-rule="nonzero"><path d="m96.2697243 21.0452399-2.4986078-.3556552-1.1178896-2.218449c-.1956741-.3874203-.8429038-.3874203-1.0385779 0l-1.1173106 2.218449-2.4991867.3556552c-.4729755.0675007-.6645972.6392718-.3207202.968267l1.8085381 1.7266579-.4266622 2.4385355c-.0804695.4617278.4150838.8162485.8400092.5978637l2.2346214-1.1509161 2.2352003 1.1514834c.4214519.2161158.9210576-.1327326.8400092-.5978638l-.4266622-2.4385355 1.8085381-1.7266578c.3432981-.3295625.1516764-.9013336-.3212991-.9688343z"/><path d="m90.6603611 71.8090808-3.465537-.4932892-1.5504986-3.0769605c-.2713974-.5373469-1.1690968-.5373469-1.4404943 0l-1.5496956 3.0769605-3.46634.4932892c-.656011.0936227-.9217878.8866619-.4448349 1.3429741l2.5084193 2.3948524-.591775 3.3822176c-.1116102.6404106.575716 1.1321263 1.1650821.8292294l3.0993913-1.596306 3.1001942 1.5970927c.5845485.29975 1.2774953-.1840983 1.1650821-.8292294l-.591775-3.3822176 2.5084193-2.3948524c.47615-.4570989.2103732-1.2501381-.4456379-1.3437608z"/><path d="m23.7299171 77.2908861-1.7610721-.2506734-.7879125-1.5636102c-.1379153-.2730621-.5940966-.2730621-.7320119 0l-.7875044 1.5636102-1.7614801.2506734c-.3333633.047576-.4684224.4505724-.2260505.6824553l1.2746963 1.2169853-.3007206 1.7187319c-.0567167.3254357.2925599.5753094.5920564.4213872l1.5750089-.8111903 1.5754169.8115901c.2970483.1523231.6491811-.0935528.5920564-.4213872l-.3007206-1.7187319 1.2746963-1.2169853c.2419638-.2322827.1069047-.6352791-.2264585-.6828551z"/><path d="m33.4001089 35.4050014-2.3020253-.3276734-1.0299377-2.0439086c-.1802791-.3569393-.7765869-.3569393-.956866 0l-1.0294042 2.0439086-2.3025587.3276734c-.4357634.06219-.6123089.588976-.2954871.8920869l1.6662482 1.59081-.3930938 2.2466794c-.0741384.4254006.3824264.7520288.7739201.5508258l2.0588085-1.0603658 2.059342 1.0608884c.3882934.1991126.8485918-.1222896.77392-.5508258l-.3930938-2.2466794 1.6662482-1.59081c.3162885-.3036335.139743-.8304195-.2960204-.8926095z"/><path d="m113.618177 73.4306873-2.459167-.3500412-1.100244-2.1834309c-.192585-.3813048-.829598-.3813048-1.022184 0l-1.099674 2.1834309-2.459737.3500412c-.465509.0664352-.654106.6291809-.315658.952983l1.779991 1.6994026-.419927 2.4000432c-.0792.4544395.408531.8033641.826749.5884266l2.199348-1.132749 2.199918 1.1333072c.414799.2127045.906519-.1306374.82675-.5884265l-.419928-2.4000433 1.779991-1.6994026c.337879-.3243603.149282-.887106-.316228-.9535412z"/><path d="m52.9148514 1.83664097-1.267397-.18040301-.5670398-1.12528894c-.099254-.19651556-.4275556-.19651556-.5268096 0l-.5667461 1.12528894-1.2676907.18040301c-.2399127.03423917-.3371111.32426506-.1626825.49114504l.9173652.87583215-.2164207 1.23692589c-.0408175.23420742.2105477.41403498.4260874.3032612l1.1334922-.58379219 1.1337859.58407991c.2137778.10962288.4671984-.06732744.4260873-.3032612l-.2164206-1.23692589.9173652-.87583215c.1741349-.1671677.0769365-.45719359-.1629762-.49143276z"/><path d="m112.385671 96.014634-1.267397-.180403-.567039-1.125289c-.099254-.1965155-.427556-.1965155-.52681 0l-.566746 1.125289-1.267691.180403c-.239913.0342391-.337111.324265-.162682.491145l.917365.8758322-.216421 1.2369259c-.040817.2342074.210548.4140349.426088.3032612l1.133492-.5837922 1.133786.5840799c.213777.1096229.467198-.0673275.426087-.3032612l-.216421-1.2369259.917366-.8758322c.174134-.1671677.076936-.4571936-.162977-.4914327z"/><path d="m2.54817451 41.6284337-.64696254-.0920895-.28945429-.5744213c-.05066574-.1003144-.21825242-.1003144-.26891816 0l-.28930439.5744213-.64711244.0920895c-.12246719.017478-.17208364.1655262-.08304385.2507127l.46828336.4470821-.1104753.6314081c-.02083591.1195549.10747733.2113506.21750294.1548044l.57860876-.2980058.57875866.2981527c.10912622.0559587.23848875-.0343683.21750294-.1548044l-.1104753-.6314081.46828336-.4470822c.0888899-.0853333.03927344-.2333815-.08319375-.2508595z"/><path d="m115.770153 4.76164712-.646963-.09208953-.289454-.57442127c-.050666-.10031443-.218253-.10031443-.268918 0l-.289305.57442127-.647112.09208953c-.122467.01747792-.172084.16552615-.083044.25071263l.468283.44708217-.110475.63140809c-.020836.11955483.107477.21135061.217503.15480441l.578609-.29800582.578758.29815269c.109127.05595871.238489-.03436834.217503-.1548044l-.110475-.6314081.468283-.44708216c.08889-.08533336.039274-.23338159-.083193-.25085951z"/></g><g stroke-width=".5"><ellipse cx="57.914634" cy="16.497672" rx="2.914634" ry="2.930507" stroke="#243A88"/><ellipse cx="74.872743" cy="6.697154" rx="1.943089" ry="1.953672" stroke="#243A88"/><path d="m14.9891487 57.3582947 2.4288618 4.8841791h-4.8577236z" stroke="#26c855" transform="matrix(.89100652 .4539905 -.4539905 .89100652 28.782526 -.28708)"/><path d="m7.99357512 14.0425916 1.52016632 3.0568905h-3.04033264z" stroke="#26c855" transform="matrix(.92050485 -.39073113 .39073113 .92050485 -5.448638 4.36116)"/><g stroke="#3C61E2"><path d="m107.125719 43.5215436 2.944839 1.7094627v3.4189254l-2.944839 1.7094627-2.944838-1.7094627v-3.4189254z" transform="matrix(.97437006 -.22495105 .22495105 .97437006 -7.813683 25.301125)"/><path d="m30.8169979 10.7045754 1.8874032 1.0956273v2.1912544l-1.8874032 1.0956273-1.8874031-1.0956273v-2.1912544z" transform="matrix(.8660254 -.5 .5 .8660254 -2.31922 17.136213)"/></g></g></g></svg>