<svg height="230" viewBox="0 0 234 230" width="234" xmlns="http://www.w3.org/2000/svg" xmlns:xlink="http://www.w3.org/1999/xlink"><linearGradient id="a" x1="74.697078%" x2="0%" y1="42.874489%" y2="104.742804%"><stop offset="0" stop-color="#ffd770"/><stop offset=".520328444" stop-color="#ffba08"/><stop offset="1" stop-color="#ff9007"/></linearGradient><g fill="none" fill-rule="evenodd" transform="translate(-1 -2)"><g transform="matrix(.98162718 -.190809 .190809 .98162718 45.005233 56.864313)"><path d="m130.571782 43.5620502-37.2111762-5.4083274-16.6484665-33.73519694c-2.9141283-5.89136781-12.553168-5.89136781-15.4672962 0l-16.6398449 33.73519694-37.21979795 5.4083274c-7.04391358 1.0264609-9.89769008 9.7211882-4.77641141 14.7241067l26.93413226 26.2566964-6.3541791 37.0819767c-1.1984137 7.021338 6.1817455 12.412414 12.5100595 9.091511l33.2796897-17.501589 33.2883118 17.510214c6.276583 3.2864 13.717094-2.018418 12.510059-9.09151l-6.354179-37.081977 26.934132-26.2566964c5.112657-5.0115442 2.258881-13.7062715-4.785033-14.7327324z" fill="url(#a)" fill-rule="nonzero"/><g transform="translate(46.634146 60.264)"><path d="m40.3661159 5.67490909c0-3.13416575-2.5817894-5.67490909-5.766588-5.67490909s-5.766588 2.54074334-5.766588 5.67490909" stroke="#724111" stroke-linecap="round" stroke-width="3"/><path d="m15.858117 5.67490909c0-3.13416575-2.5817894-5.67490909-5.766588-5.67490909-3.18479862 0-5.76658801 2.54074334-5.76658801 5.67490909" stroke="#724111" stroke-linecap="round" stroke-width="3"/><g transform="translate(0 17.024727)"><path d="m.0000095 0c4.12641935 8.0230633 12.5832941 13.5230982 22.3455237 13.5230982s18.2191044-5.5000349 22.3455237-13.5230982h-44.6910569z" fill="#fff"/><path d="m0 0c4.12642885 8.0230633 12.5833036 13.5230982 22.3455332 13.5230982.9751272 0 1.9372302-.0548769 2.883294-.1616638-9.8338956 0-18.63128314-6.13977691-22.3455237-13.3614344z" fill="#e3e3e3"/></g></g></g><g fill="#ffba08" fill-rule="nonzero"><path d="m17.5349287 5.70097579-4.9972154-.70778909-2.2357792-4.41493318c-.39134822-.77100469-1.68580764-.77100469-2.07715583 0l-2.23462136 4.41493318-4.99837325.70778909c-.94595111.13433317-1.32919446 1.27221419-.64144053 1.92694731l3.61707622 3.43622-.85332432 4.8529271c-.16093905.9188841.83016762 1.6244155 1.68001843 1.1898081l4.46924271-2.290437 4.47040053 2.2915659c.8429038.4300919 1.8421153-.264151 1.6800185-1.1898081l-.8533244-4.8529271 3.6170763-3.43622005c.686596-.65586197.3033527-1.79374299-.6425984-1.92807616z" transform="matrix(.9612617 -.27563736 .27563736 .9612617 176.820009 36.181136)"/><path d="m24.3207223 7.90718066-6.931074-.98169443-3.1009972-6.12345598c-.542795-1.06937367-2.3381937-1.06937367-2.8809886 0l-3.09939131 6.12345598-6.93267991.98169443c-1.31202212.1863184-1.84357576 1.76454484-.88966984 2.67265134l5.01683856 4.7659933-1.18354994 6.7309479c-.22322041 1.2744805 1.1514319 2.2530436 2.33016413 1.6502487l6.19878261-3.176807 6.2003885 3.1783727c1.1690968.596532 2.5549904-.366374 2.3301641-1.6502487l-1.1835499-6.7309479 5.0168385-4.7659933c.9523001-.9096722.4207464-2.48789864-.8912757-2.67421704z" transform="matrix(.9612617 -.27563736 .27563736 .9612617 108.811377 186.205116)"/><path d="m12.3589923 4.01816951-3.52214419-.49886487-1.57582492-3.11173921c-.27583057-.54342057-1.18819322-.54342057-1.46402379 0l-1.57500886 3.11173921-3.52296023.49886487c-.66672655.09468089-.93684465.89668373-.45210099 1.35815362l2.54939258 2.42192129-.60144121 3.42044668c-.11343328.6476491.58511987 1.1449227 1.18411288.8386022l3.15001772-1.614349 3.15083379 1.6151446c.59409662.303138 1.29836222-.1861792 1.18411292-.8386022l-.6014412-3.42044664 2.5493925-2.42192129c.4839276-.46226553.2138095-1.26426837-.452917-1.35894926z" transform="matrix(.66913061 -.74314483 .74314483 .66913061 36.91633 149.798347)"/><path d="m16.1553372 5.25244144-4.6040507-.65210253-2.0598753-4.06758051c-.36055819-.71034453-1.55317372-.71034453-1.9137319 0l-2.05880857 4.06758051-4.6051174.65210253c-.87152674.12376427-1.22461774 1.17212049-.59097407 1.77534132l3.33249636 3.16586934-.78618752 4.4711145c-.14827689.8465892.76485271 1.4966117 1.54784001 1.0961978l4.11761714-2.1102329 4.11868385 2.111273c.7765869.3962537 1.6971837-.2433684 1.54784-1.0961979l-.7861875-4.4711144 3.3324964-3.1658694c.6325769-.60426087.2794859-1.65261709-.5920408-1.77638136z" transform="matrix(.66913061 -.74314483 .74314483 .66913061 52.46037 65.207017)"/><path d="m17.2581404 5.61098605-4.9183346-.69661665-2.2004874-4.34524359c-.38517083-.75883441-1.65919724-.75883441-2.04436801 0l-2.19934793 4.34524359-4.91947408.69661665c-.9310193.13221273-1.30821317 1.25213233-.63131541 1.89653051l3.55998078 3.38197944-.83985462 4.7763237c-.15839863.9043795.81706345 1.5987741 1.6534994 1.1710271l4.39869584-2.2542826 4.39983543 2.2553936c.8295986.4233029 1.8130376-.2599813 1.6534994-1.171027l-.8398547-4.7763238 3.5599808-3.38197941c.6757582-.64550921.2985644-1.76542881-.6324549-1.89764154z" transform="matrix(.66913061 -.74314483 .74314483 .66913061 211.793703 140.523352)"/><path d="m8.89443989 2.89177033-2.53479401-.35901985-1.13407953-2.23943642c-.19850796-.39108541-.85511123-.39108541-1.05361919 0l-1.13349223 2.23943642-2.5353813.35901985c-.47982547.06813933-.67422232.64531957-.32536513.97742724l1.83473042 1.7429927-.43284133 2.461605c-.08163494.46609594.42109529.82397059.85217472.60351981l2.26698445-1.16180427 2.26757174 1.16237687c.42755562.21816038.93439696-.13398827.85217473-.60351981l-.43284133-2.461605 1.83473041-1.7429927c.3482699-.33268027.15387304-.90986051-.32595242-.97799984z" transform="matrix(.91354546 .40673664 -.40673664 .91354546 98.750752 .763327)"/><path d="m8.89443989 2.89177033-2.53479401-.35901985-1.13407953-2.23943642c-.19850796-.39108541-.85511123-.39108541-1.05361919 0l-1.13349223 2.23943642-2.5353813.35901985c-.47982547.06813933-.67422232.64531957-.32536513.97742724l1.83473042 1.7429927-.43284133 2.461605c-.08163494.46609594.42109529.82397059.85217472.60351981l2.26698445-1.16180427 2.26757174 1.16237687c.42755562.21816038.93439696-.13398827.85217473-.60351981l-.43284133-2.461605 1.83473041-1.7429927c.3482699-.33268027.15387304-.90986051-.32595242-.97799984z" transform="matrix(.91354546 .40673664 -.40673664 .91354546 217.692392 188.186857)"/><path d="m4.54030542 1.47614922-1.2939251-.18326728-.57890856-1.14315521c-.10133148-.19963564-.43650485-.19963564-.53783633 0l-.57860877 1.14315521-1.29422489.18326728c-.24493438.03478278-.34416729.32941343-.1660877.49894296l.93656673.88973778-.2209506 1.25656462c-.04167182.23792594.21495465.42060863.43500586.30807609l1.15721753-.59306108 1.15751733.59335338c.21825243.11136337.47697749-.0683964.43500587-.30807609l-.2209506-1.25656463.93656672-.88973777c.17777979-.16982183.07854689-.46445248-.16638749-.49923526z" transform="matrix(.91354546 .40673664 -.40673664 .91354546 227.769907 3.608556)"/><path d="m4.54030542 1.47614922-1.2939251-.18326728-.57890856-1.14315521c-.10133148-.19963564-.43650485-.19963564-.53783633 0l-.57860877 1.14315521-1.29422489.18326728c-.24493438.03478278-.34416729.32941343-.1660877.49894296l.93656673.88973778-.2209506 1.25656462c-.04167182.23792594.21495465.42060863.43500586.30807609l1.15721753-.59306108 1.15751733.59335338c.21825243.11136337.47697749-.0683964.43500587-.30807609l-.2209506-1.25656463.93656672-.88973777c.17777979-.16982183.07854689-.46445248-.16638749-.49923526z" transform="matrix(.91354546 .40673664 -.40673664 .91354546 2.371533 81.368556)"/><path d="m4.54030542 1.47614922-1.2939251-.18326728-.57890856-1.14315521c-.10133148-.19963564-.43650485-.19963564-.53783633 0l-.57860877 1.14315521-1.29422489.18326728c-.24493438.03478278-.34416729.32941343-.1660877.49894296l.93656673.88973778-.2209506 1.25656462c-.04167182.23792594.21495465.42060863.43500586.30807609l1.15721753-.59306108 1.15751733.59335338c.21825243.11136337.47697749-.0683964.43500587-.30807609l-.2209506-1.25656463.93656672-.88973777c.17777979-.16982183.07854689-.46445248-.16638749-.49923526z" transform="matrix(.91354546 .40673664 -.40673664 .91354546 29.574785 211.616556)"/></g><ellipse cx="182.650407" cy="225.224" rx="5.829268" ry="5.832" stroke="#0a5064"/><ellipse cx="151.560976" cy="13.328" rx="3.886179" ry="3.888" stroke="#0a5064"/><path d="m31.7937864 114.148686 4.8577235 9.72h-9.7154471z" stroke="#26c855" transform="matrix(.89100652 .4539905 -.4539905 .89100652 57.494128 -1.462906)"/><path d="m87.5394391 224.226704 3.0403326 6.083515h-6.0806653z" stroke="#26c855" transform="matrix(.92050485 -.39073113 .39073113 .92050485 -81.841902 52.271123)"/><g stroke="#3C61E2"><path d="m216.066928 86.6121809 5.889677 3.402v6.804l-5.889677 3.4020001-5.889677-3.4020001v-6.804z" transform="matrix(.97437006 -.22495105 .22495105 .97437006 -15.476287 50.998734)"/><path d="m63.4494848 21.3031649 3.7748063 2.1804067v4.3608134l-3.7748063 2.1804067-3.7748062-2.1804067v-4.3608134z" transform="matrix(.8660254 -.5 .5 .8660254 -4.33137 35.163064)"/></g></g></svg>