<svg enable-background="new 0 0 110 110" height="110" viewBox="0 0 110 110" width="110" xmlns="http://www.w3.org/2000/svg" xmlns:xlink="http://www.w3.org/1999/xlink"><filter id="a" height="185.1%" width="185.1%" x="-42.6%" y="-30.4%"><feMorphology in="SourceAlpha" operator="dilate" radius="1.5" result="shadowSpreadOuter1"/><feOffset dx="0" dy="9" in="shadowSpreadOuter1" result="shadowOffsetOuter1"/><feGaussianBlur in="shadowOffsetOuter1" result="shadowBlurOuter1" stdDeviation="7.5"/><feColorMatrix in="shadowBlurOuter1" type="matrix" values="0 0 0 0 0.729219813   0 0 0 0 0.729219813   0 0 0 0 0.729219813  0 0 0 0.26 0"/></filter><g filter="url(#a)"><path d="m74.367 9c10.695 0 17.633 6.938 17.633 17.633v38.734c0 10.695-6.938 17.633-17.633 17.633h-38.734c-10.695 0-17.633-6.938-17.633-17.633v-38.734c0-10.695 6.938-17.633 17.633-17.633z"/></g><path d="m74.367 9c10.695 0 17.633 6.938 17.633 17.633v38.734c0 10.695-6.938 17.633-17.633 17.633h-38.734c-10.695 0-17.633-6.938-17.633-17.633v-38.734c0-10.695 6.938-17.633 17.633-17.633z" fill="#fff"/><path d="m50.356 76.354c7.612-1.555 15.703-3.787 23.038-6.34 2.191-.756 3.905-2.472 4.662-4.664 2.511-7.336 4.742-15.43 6.298-23.044.438-2.233-.12-4.545-1.596-6.22-5.1-5.82-11.039-11.761-16.898-16.864-1.675-1.476-3.986-2.033-6.217-1.555-7.614 1.555-15.705 3.788-23.037 6.339-2.193.757-3.906 2.472-4.664 4.665-2.51 7.336-4.742 15.429-6.297 23.044-.438 2.232.119 4.545 1.595 6.221 5.101 5.82 11.04 11.76 16.899 16.864 1.674 1.435 3.986 1.992 6.217 1.554" fill="#3C61E2"/><g fill="#fff"><path d="m52.03 48.007c-.917-.239-1.873.359-2.072 1.275l-1.355 5.782c-.24.997-.837 1.835-1.714 2.392-.877.519-1.913.718-2.909.479-.997-.24-1.834-.839-2.392-1.715-.518-.878-.678-1.755-.478-2.91l3.507-18.899c.16-.957-.438-1.833-1.395-2.033-.956-.159-1.833.438-2.033 1.396l-1.274 6.778-4.625 1.555c-.917.318-1.395 1.276-1.075 2.192.239.758.957 1.196 1.713 1.196.16 0 .318-.04.478-.08l2.79-.917-1.515 8.094c-.438 1.873-.119 3.826.916 5.461 1.037 1.676 2.631 2.833 4.545 3.27.677.16 1.354.239 1.992.2 1.235-.04 2.431-.438 3.508-1.077 1.674-1.035 2.83-2.631 3.269-4.545l1.354-5.78c.28-.957-.318-1.875-1.235-2.114z"/><path d="m49.559 39.156c-.319-.917-1.275-1.396-2.192-1.076l-1.594.518-.678 3.867 3.348-1.116c.917-.279 1.395-1.276 1.116-2.193z"/><path d="m57.372 58.254c-.679.04-1.355-.04-1.994-.2-1.914-.438-3.507-1.595-4.544-3.268-1.036-1.676-1.354-3.629-.876-5.504.239-.916 1.155-1.515 2.072-1.275.917.239 1.515 1.157 1.276 2.074-.239.997-.08 2.033.478 2.911.519.875 1.395 1.474 2.392 1.713.996.239 2.033.081 2.91-.478.876-.519 1.475-1.396 1.714-2.393l1.354-5.781c.239-.917 1.155-1.516 2.071-1.276.917.24 1.516 1.156 1.276 2.073l-1.354 5.782c-.438 1.914-1.595 3.509-3.27 4.545-1.034.678-2.271 1.037-3.505 1.077z"/><path d="m69.566 55.024c-.637.04-1.314-.04-1.992-.198-1.913-.439-3.507-1.597-4.543-3.271-1.036-1.675-1.355-3.629-.877-5.502.239-.917 1.155-1.516 2.071-1.276.917.24 1.516 1.156 1.276 2.073-.24.997-.08 2.034.479 2.912.519.876 1.396 1.476 2.391 1.713 2.073.479 4.106-.797 4.624-2.83l1.354-5.782c.24-.917 1.156-1.514 2.073-1.275.917.24 1.514 1.157 1.274 2.074l-1.354 5.782c-.756 3.228-3.626 5.461-6.776 5.58z"/></g></svg>